<svg xmlns="http://www.w3.org/2000/svg" viewBox="0 0 1024 1536"><path fill="none" d="M0 0h1024v1536H0z"/><path fill="#378c14" d="M452.6 572.6h7.3a78 78 0 0130.5 5c3.4 1.8 5.6 4.2 7.6 7.4.6 3.5.6 3.5.6 7.3v2.1l-.1 11.8-.2 12.6v12.9L498 657q22.6 3.3 45.3 6 6.9.5 13.6 2c6 1.3 12.1 1.8 18.3 2.4q12.9 1.1 25.7 3.5 15.5 2.8 31.2 4.7l2.5.3 9.7 1.2q14 1.8 27.7 3.9c0 4 0 4-1.9 6.2L667 690l-2.4 2c-7.5 6.4-7.5 6.4-12.6 7v5c4.3-2 7.5-4 10.9-7.3l2.6-2.3 2.5-2.4 10-9q6 .1 12 1l2.6.3c11.8 1.7 22 8.5 29.4 17.7 5.6 8 8.3 14.8 8.3 24.6v193c0 5-1 9.5-2.3 14.4l-.9 3.9A122 122 0 01719 962l-1.3 2.8c-3.9 7.6-9 13.8-14.7 20.2l-1.8 2.2a131 131 0 01-17.8 17.1A386 386 0 01612 1051l-2.9 1.5-22.8 11.9A704 704 0 01540 1086l-3.5 1.5c-19.7 8.4-33 11.4-53.5 3.5l-3-1.2a521 521 0 01-81.6-39.3l-10.2-5.9a359 359 0 01-71.8-55 113 113 0 01-36.5-91.9v-63.6l-.1-73.3c-.2-68.9-.2-68.9 14-84.7a78 78 0 0123.9-14.2l4.4-2C347.7 648 369.4 638 398 643v2l14 1v-5.8l.2-41.6v-4.2c0-10.9 0-10.9 2-14.3 3.4-3.2 8-4.4 12.5-5.4l2.2-.5c7.9-1.6 15.7-1.7 23.7-1.6"/><path fill="#f2f97f" d="M452.6 572.6h7.3a78 78 0 0130.5 5c3.4 1.8 5.6 4.2 7.6 7.4.6 3.5.6 3.5.6 7.3v2.1l-.1 11.8-.2 12.6v12.9L498 657q22.6 3.3 45.3 6 6.9.5 13.6 2c6 1.3 12.1 1.8 18.3 2.4q12.9 1.1 25.7 3.5 15.5 2.8 31.2 4.7l2.5.3 9.7 1.2q14 1.8 27.7 3.9c0 4 0 4-1.9 6.2L667 690l-2.4 2c-7.5 6.4-7.5 6.4-12.6 7v5c4.3-2 7.5-4 10.9-7.3l2.6-2.3 2.5-2.4 10-9q6 .1 12 1l2.6.3c11.8 1.7 22 8.5 29.4 17.7 5 7 8.3 13.5 8.2 22.3v22.4l-.1 11-.1 21.3h-1v-9c-5.2.4-5.2.4-10 2-.7 2.5-.7 2.5-1 5h-1v-6l-7 .7c-2 0-2 0-3 1.3l-4.9.8-3.2.5-3.5.5-3.6.5q-20 2.9-40 5.2l-17.1 2.2-2.9.3-2.6.4-2.3.3c-2.1.3-2.1.3-4.9 1.3a77 77 0 01-8-.7l-2-.3v-1l2.2-.1 2.7-.3 2.8-.2 2.3-.4 1-2-2 1h-5c-5.4-.1-9.9.7-15 2l-2 7h2.3l10.5-.1h3.7l3.5-.1h3.3c2.7.2 2.7.2 5.7 2.2l1 2h-5.8l-3.2-.1c-2.6 0-4.5.5-7 1.1l-2.3-.8c-3.4-.2-4 .5-6.5 2.6-1.8 1.7-3 3-4.2 5.2a317 317 0 0036.3 8.3c9.9 2 19.3 5.4 28.7 8.7l-1 4-12-2-2.8-.5-4.8-.8c-2.4-.7-2.4-.7-5.2-2.1a48 48 0 00-11.5-3.6q-9.4-2-18.7-5v4l3.2 1.4c7.5 3.2 14.8 6.4 21.8 10.6-1.5.7-1.5.7-4 1q-3.8-1.4-7.5-3.3l-2-1-7.8-3.9a12 12 0 00-9.1-1l-2.3.5q-3.3 1-6.3 2.7c1.1 3.4 2.2 4.3 4.8 6.6l2 1.8c2.1 1.6 2.1 1.6 4.2 2.6a17 17 0 015.5 4.9q3.5 4.2 7.5 8.1a53 53 0 01-9-3c-2 1.8-2 1.8-4 4v3l5 4 7 8 2.4 2.8c1.6 2.2 1.6 2.2 1.6 5.2-3.1-.3-4-1-6.3-3.4l-2.4-3-2.4-3C609 856 609 856 608 853c-2-1.2-2-1.2-4-2v-2l-4 2 6 8 1.7 2c1.3 2 1.3 2 1.3 6h2q3.1 3.6 6 7.6l1.6 2.1A52 52 0 01626 890h-3c-14-14.3-14-14.3-14-21h-2l-1-4h-2l-3-3 1 4-4 1-.3-1.9a40 40 0 00-1.7-7.1c-2.5-1.7-2.5-1.7-5-2l1.4 3.4A45 45 0 01595 873l-1-3-3 1v-2h-3l.5 3.1 3.6 21.5 3 18.3.5 2.6 1 5.1c.8 4.5 1 8-1 12.2-1.6 2.2-1.6 2.2-3.6 4.2-3.8.5-7.6.3-11.4.3h-3.8a1187 1187 0 01-50-1.6l-11.5-.6h-3.5c-9-.6-9-.6-12-3.6L498 928l-1-1c0-9.5 2-19.1 3.6-28.5l2-12.4 2.5-15.4 1.8-13q1-7.6 2.7-14.8c3-11 3-11 1.5-21.9-1.4-1.8-1.4-1.8-4.1-4-4-4.8-4-4.8-4-7h-2a62 62 0 01-3-46c3.2-7.6 7.2-15 14-20h2v-3l2.2-.8a45 45 0 007.8-4.2c1.3-3.7 1.3-3.7 1-7l2 1v3l27-2v2l3.2.3q5.7.8 11.2 2l3.2.8 2.4.9 1 3 5 1 1.7-2.4 2.2-3 2.2-3.1c1.9-2.5 1.9-2.5 3.9-3.5-.5 4.4-2.1 6.7-5 10-2.3 3.4-2.2 5-2 9 4.4-2.3 7.2-5.3 10.2-9l10.8-12.8 2.1-2.5c1.9-1.7 1.9-1.7 4.9-1.7a28 28 0 01-4.8 7.3l-1.8 2-6 6.4-2 2-3.9 4c-3.6 3.4-3.6 3.4-4.5 8l1 2.3 1 3c3.3-.7 3.3-.7 4.7-4l1.3-3h2l1-4h2l.7-1.7c1.7-3 3.8-5 6.3-7.3l1.5-1.6q6-6 12.8-11.3 5.9-4.6 11.4-9.4c2.3-1.7 2.3-1.7 4.3-1.7v-2c5.4-4 5.4-4 8-4l-.7-8.2q-.4-3.5-1.3-6.8v-2l-2-.2c-15.7-1.5-15.7-1.5-17-2.8l-6.3-.5q-5.4-.2-10.7-1.5l-4.2-.4q-7-.9-13.8-2.6v-2h-2.3l-10.1-.4-3.6-.2h-3.4l-3.2-.2c-2.4-.2-2.4-.2-3.4-1.2l-5.9-.9-3.7-.5-3.8-.5c-14.2-2-14.2-2-19.4-3-6.7-1.5-13.4-2.2-20.1-3.1l-12.7-1.6-2.6-.4q-13.2-1.6-26.2-3.6a3387 3387 0 00-52.6-7l-2-.2-5.7-.8q-4.2-.5-8.3-.4l2 2v3c-2.4-.2-2.4-.2-5-1l-.8-2.4c-1-3-1-3-4.7-4-10.5-1.7-23.3-2.8-32.5 3.4l-2.2 1.4a32 32 0 00-13.4 16.8q-.7 5.2-.6 10.7v10.3l-.1 21v16.2L343 870l4.3-1 2.5-.5q3.7-1 7.3-2.6c4-1.7 7.6-2.5 11.9-2.9-1.2 2.9-2.3 4.6-5.1 6l-2.5 1c-3.6 1.4-3.6 1.4-5.8 4.6l-.6 2.4-2 3-.8 2.4a15 15 0 01-6.2 6.6h-2c1.3 36.2 19.1 62.8 45 87q5.3 4.7 11 9l3 2.4a410 410 0 0029.3 20.8c27.8 18.2 57.5 33.6 86.8 49.2l10 5.6q4.7 2.4 9.9 4l.1 2 .3 2.8.2 2.7c.3 2.7.3 2.7 2.4 5.5l-4.4.2-2.4.2c-9-1.1-17.2-6.3-25-10.4l-3.3-1.7a762 762 0 01-37.2-20.9A504 504 0 01367.4 974c-21.6-17.4-32.7-46.2-35.6-72.8l-.8-8.1h-5v-2h-3l-1-3-2 1c-3 1-3 1-6.3 1.4-4.4.7-8 2.1-11.7 4.6l-2 3-7.5 3c-5.2 1.8-5.2 1.8-9.5 5-.4 2-.4 2-.4 4.1l-.1 2.5-.1 2.5-.1 2.6-.3 6.3h-1a113 113 0 01-1.1-18.5v-38l-.1-106.7c-.2-68.9-.2-68.9 14-84.7a78 78 0 0123.9-14.2l4.4-2c25.6-12 47.3-22 75.9-17v2l14 1v-5.8l.2-41.6v-4.2c0-10.9 0-10.9 2-14.3 3.4-3.2 8-4.4 12.5-5.4l2.2-.5c7.9-1.6 15.7-1.7 23.7-1.6M597 719l1 3c-2.3 3.2-2.3 3.2-5 6h-2c0-2 0-2 2.4-4.5l2.6-2.5z"/><path fill="#479917" d="M396 654c1.8 3 1.8 3 3 6 2 1 2 1 4 1l-3-6 13.8 1.4q30 3 59.9 7.6a1377 1377 0 0054 7.2A94 94 0 01542 674l8.3 1.2 2.9.4 5.8.7 2.5.3 5 1q5 .8 10 .9 6.8.4 13.5 1.5v2h3.1c3.5 0 6.5.4 9.9 1l4.1.5c3.9.5 3.9.5 5.8 1q4.8 1 9.8 1.2c2.3.3 2.3.3 5.3 1.3l10.3 1.2c5.5.6 5.5.6 7.7 2.8l-1 3 1 2a38 38 0 010 11c-4.3 4-4.3 4-8 4v2l-4.4 3.7-2.8 2.2-5 3.8C612 733.1 612 733.1 601 746h-2l-1 4h-2l-.7 3-1.3 3c-2.1.9-2.1.9-4 1-3-4.4-3-4.4-2.8-7a16 16 0 014.2-5.8l2-2.2 2.2-2.2A176 176 0 00611 722c-3.6 2-5.6 3.7-8 7h-2l-.8 1.8c-2 3.7-4.9 6.7-7.6 10l-1.8 2-1.7 2-1.6 1.9C586 748 586 748 583 748c-.9-2.5-.9-2.5-1-6a46 46 0 014.7-6.2c1.6-1.8 1.6-1.8 1.3-4.8l-8 11-5-1-1-4-3.8-.3c-14-1.6-14-1.6-17.2-4.7q-4 0-8.1.4l-2.3.1q-5.3.3-10.5 1.1c-3.1.4-3.1.4-5.1-.6l-1-3v2.7c-1.2 3.9-2 4.2-5.4 6.2-4.2 2.1-4.2 2.1-6.6 2.1v3c-1.5 1.3-1.5 1.3-3.5 2.7-8 6.6-13 18.4-14.3 28.5l-.2 2.8-.3 3.2a59 59 0 004.2 23.6c1.1 3.2 1.1 3.2 1.1 5.2h2l4 5.4c2.8 4 2.8 4 6 7.6.1 8-1.4 16.1-3 24l-1.8.3c-3.6 1.1-5 3.8-7.2 6.7l-1 1.9q-2 3.6-4.6 6.9l-2 2.4-1.4 1.8-2-1 1.5-2.3 2-3 2-2.9c1.8-2.9 1.8-2.9 1.5-6.8q-3 3.6-5.6 7.3L490 860h-2l-2 4-2-2c12.8-17.9 12.8-17.9 16.6-21.6 2.3-2.3 4.4-5 4.4-8.4-3.7.6-5.4 2-8 4.8l-2 2.1-2 2.1-5 5h-2l2-9-2.1 1.8a292 292 0 01-33.8 24.8q-7.8 5.2-15.2 11.1c-8.1 6.3-8.1 6.3-10.9 6.3v6l-3 1v-3a132 132 0 00-22.1 14.5l-2.4 1.7a273 273 0 01-32.3 20.8 54 54 0 00-13.2 10c-8.3-19.2-8.3-19.2-9-27l-.4-4c-.6-10.7-.6-10.7 1.9-14l3.8-2c2-1 2-1 3-4.2l.7-2.8 2-2 .8-2.5c1.5-3.2 3-3.8 6.3-5.2 3.6-1.4 3.6-1.4 5.9-4.3-5.5.7-9.9 2.6-14.9 5-3.5 1.1-6.4 1-10.1 1l-.2-183.9V684c0-9.6 3.3-15.9 9.9-22.6A43 43 0 01396 654m201 65-1.9 3c-2.1 3-2.1 3-4.1 4v2c3.3-1.4 5.2-2.8 7-6z"/><path fill="#318513" d="M628 359c.7 2 .7 2 1 4h-2.3c-17 .3-33 1.5-49.7 5l-2 .4q-10.4 2.1-20 5.6l-3.2 1q-11.8 4.1-22.8 10l-1.9 1q-4.7 2.3-9.2 5.3l-1.9 1.2c-3 1.9-4.7 3-6.5 6.3L508 401c-3.3.4-3.3.4-7 .1s-3.7-.3-7-.1c-2 3.1-2.3 4-2.2 7.6v2.3c0 2.3 0 2.3 2.2 4.1 5.5.6 5.5.6 10.4-1.5 1.9-2.5 1.9-2.5 2-6.3.4-2.1.4-2.1 1.6-4.2 4.4-2.9 9.2-4.9 14-7l4.9-2.7a161 161 0 0150.1-17.8c23.2-5.5 49-3.1 72 1.5l2.2.4c8.4 1.8 16.3 4.8 24.3 8l2.8 1.2c5.5 2.2 10 4.8 14.7 8.4l4 2.2q6.5 3.6 12.6 8l1.9 1.3 4.5 3.5v2l4 2v2l1.8.8c5.5 3 10.7 8 14.2 13.2v3l1.7.1c3.5 1.4 5.2 4.2 7.4 7l1.4 1.8c2.1 2.8 3.5 5 4.6 8.5l.9 2.6 3 1 2 6 2 1 2.2 5 2.4 5.6a154 154 0 0112 59.5v2.4c.7 27.8.5 55.7.4 83.5l3 1h-3v7l2 .2 2.8.2 2.6.3q3.4.4 6.6 1.3l-1-7h2l1 7 4 1c.4 2.6.4 2.6 0 6-6.2 7.9-16.6 10.6-26 12q-5.7.4-11.4.3h-3c-9.3 0-19.7-.6-27.6-6.3-3.5-3.5-3.5-7-3.5-11.7v-18.6l-.1-2.2c0-3.7.3-5.2 3-7.9q4.3-2.5 9.3-3.8c4.2-1.1 4.2-1.1 8.3-2.8v-26c-6.4 0-8.5.4-14 3l-5 2v-1.9l-.2-27c0-18.4-1.2-35.4-9.9-52-.9-2.1-.9-2.1-.9-6.1h-2l-1.2-3.1c-1.3-3.2-3-5.6-5.3-8.2l-3.2-4a92 92 0 00-29.4-24.7 102 102 0 00-25.9-11l-3.2-1c-29.9-7.5-62.5-.8-89.1 13.8a129 129 0 00-59.4 77.8c-1.9 8-2.4 16-2.6 24.2v2.3L493 576l-3-.8a151 151 0 00-72-2.2l-.2-27.1c-.3-24.4 2-48.4 12.2-70.9l1-2c4.3-9.8 8.8-19.3 15-28l2-2.8a207 207 0 0126-30.2l1.7-1.6C510.5 379 579.2 342.7 628 359"/><path fill="#55b419" d="M729 770a171 171 0 011.2 27.7v116.1c0 7 0 13.4-2.2 20.2l-.9 3.9a117 117 0 01-9.4 26.9c-3.9 7.6-9 13.8-14.7 20.2l-1.8 2.2c-4.6 5.5-9.8 10.1-15.2 14.8l-2.6 2.3A386 386 0 01612 1051l-2.9 1.5L589 1063l-2.7 1.4A704 704 0 01540 1086l-3.5 1.5c-19.7 8.4-33 11.4-53.5 3.5l-3-1.2a521 521 0 01-81.6-39.3l-10.1-5.9a359 359 0 01-72-55 122 122 0 01-29.6-43.7l-.7-2a77 77 0 01-4.3-27.3v-8.4c.4-2.7 1.1-3.5 3.3-5.2l9.6-3.7c4.4-1.7 4.4-1.7 7.4-5.3a45 45 0 0117-6l4-1v4h3v2l2.4-.6 2.6-.4c2 2 1.6 6.3 1.9 9.2a106 106 0 0030.3 67c1.8 1.8 1.8 1.8 1.8 3.8l1.7.7a25 25 0 016.4 5.4q7.5 7.4 15.9 13.9l5.2 4.3c25.7 21 54 38 83 54.1l8.6 5a990 990 0 0031.2 17c9.5 5.2 9.5 5.2 20 6.8h2.3l1.7-.2-2-2c-.3-3.3 0-6.7 0-10l2.4-.3a64 64 0 0025.6-8.6l10-5 6.7-3.3a487 487 0 0081.8-49l2.2-1.7q6.8-5.3 12.7-11.6c1.6-1.5 1.6-1.5 3.6-1.5l.7-1.8c1.5-2.6 3.2-4.1 5.4-6.1 9.2-9 16.8-20.4 20.5-32.8l.7-2.1A98 98 0 00715 925l.4-2.4a39 39 0 00-.4-18.6c-4-5.1-10-8-15.8-10.9a85 85 0 01-8.1-4.9l-2.6-1.5q-5.6-3.8-11-7.9c-2.5-1.9-2.5-1.9-5.3-3.4L670 874v-2l-2.3-.3c-3-.8-3.7-1.5-5.7-3.7a21 21 0 00-7-4.1c-5.4-2.2-9.8-6.1-14.4-9.7l-8-5.9q-6.5-5-12.6-10.3l1-3 3.2 2c2.7 1.6 3.4 2 6.6 1.7l2.2-.7 2 1 .5 2.6c2.3 5.3 6.8 7.3 11.5 10.4l5.8 4.1 2.7 2q3 2.3 5.9 4.8c2.4 2.3 2.4 2.3 5.1 2.6 3 .6 4.5 2 6.7 4q4.4 3.5 9 6.6l11 8 8 5.5q6.2 4.4 11.8 9.4l2 1 1-128h-8v-1h11l2.3-1c3-1.1 4.6-.9 7.7 0"/><path fill="#cef084" d="M854 732q2 3.2 3.7 6.6l1 1.9A34 34 0 01862 753l-23 9.8-2.1.8c-10.6 4.4-10.6 4.4-13.9 4.4v2l-7-1 1 7 1.8-.6 8-2.5 2.7-.9 2.7-.8 2.5-.8c2.5-.4 4-.2 6.3.6h-3l1.1 1.8c.9 2.2.9 2.2 0 4.5L838 779l2 2q3.8-.7 7.6-1.9l2.2-.6 5.2-1.5v2l2.6-1 23-9.8q5-1.7 10.4-2.2c4 6.5 4 6.5 4 11l2 .4c2 .6 2 .6 3 1.6l.6 8v2.4l.4 5.6-28.5 9.4-2.5.8c-5.8 1.8-5.8 1.8-8 1.8l2 18c-14.9 3-14.9 3-20.3 3.6-3.5.2-3.5.2-5.7 1.4l-11 1.3c-3.8 0-3.8 0-7 1.7l2 2c-18.8 3.3-18.8 3.3-28 4l2 13a73 73 0 0014.5 1.3h6.6l35.9.7 1.4 5.7.8 3.2c2 8 2 8-.2 12.1l-1 7a669 669 0 01-81.2-6 208 208 0 00-21.4-1.7q-5.9 0-11.4-1.3c-1 4.1-1 8-1 12.2.1 6.6.1 6.6-1 8.8l3 1-2 1 1 3-.1 4.5-.2 2.6-.1 2.7c-.5 8.1-.5 8.1-.6 16.2l-2 1-.1-130v-6.5c.1-2.5.1-2.5 1.1-4.5l5-2.5 3-1.4 3.3-1.5 6.3-3 2.9-1.3c2.5-1.2 2.5-1.2 4.6-2.9 2-1.5 3.7-2.2 6-3 8.4-3.3 16.5-7.5 24.6-11.5l22-10.5 8-3.8 2.6-1.3 2.7-1.3 10.9-5.4 2.8-1.4 2.7-1.3 2.4-1.2c2.6-.8 3.7-.8 6.2.3"/><path fill="#318512" d="m347 651-1.8 1.6a38 38 0 00-13.4 32v9.8l-.1 20v15.4L331 843v11.9l-.1 8.1-1 2-2.2.7c-4 1.8-6 4.4-7.8 8.3v7c-2.6 2.1-4.8 3-8 4l-1 2c-3.9 2.7-7.3 4-12 4l-9.8 5.5C286 898 286 898 282 898a280 280 0 01-1.2-34.7V813l-.2-89.6c0-12.9.6-26 6.5-37.8l1.5-3.2c6.9-10.9 18.2-15.7 29.5-20.7l19.9-9.1c5.7-2.7 5.7-2.7 9-1.6"/><path fill="#195d0f" d="M567 752a57 57 0 0110.5 9.6c6.5 8 8.5 18.4 7.5 28.4l-.2 2.3a39 39 0 01-16.9 25.4c-2.2 2.7-2.4 4.4-2.2 8q.9 7 2 13.7l.5 3.3q2.3 13.1 5 26.3 2.2 11 3.8 22 1.3 9.1 3 18.4 1.2 6.2 1 12.6-27.4.3-54.7-.4l-2-.1-5.7-.2h-3.2c-2.4-.3-2.4-.3-3.4-1.3 0-10 2-19.9 3.5-29.7l1.2-7.6q2.1-13.9 4.6-27.8l2.9-17 .5-3.1c1.4-8.4 1.4-8.4 1.3-16.8-1.7-2.3-1.7-2.3-4.1-3.9A39 39 0 01508 790a41 41 0 018.2-29.8c13.4-16 33-18.4 50.8-8.2"/><path fill="#a9de2b" d="m681.6 694 2.7.4c11.1 2 19.6 6.7 26.7 15.6 5.4 8 6.3 17.2 6.2 26.6v2.7L717 767l-5 1v2h5v1l-2 .2-2.4.2-2.5.3c-2 0-2 0-3.1 1.3l-8 1.3-3.6.5-3.6.5q-20 2.9-40 5.2l-20 2.5-2.6.4-2.3.3c-2.1.3-2.1.3-4.9 1.3l-5.2-.4-2.7-.3-2.1-.3v-1l2.2-.1 2.7-.3 2.8-.2 2.3-.4 1-2-2 1h-5c-5.4-.1-9.9.7-15 2l-2 7h2.3l10.5-.1h3.7l3.5-.1h3.3c2.7.2 2.7.2 5.7 2.2l1 2h-5.7l-3.3-.1c-2.6 0-4.5.5-7 1.1l-2.3-.8c-3.4-.2-4 .5-6.5 2.6-1.8 1.7-3 3-4.2 5.2q9.8 2.8 19.8 5l2.3.5q7.1 1.6 14.2 2.8c9.9 2 19.3 5.4 28.7 8.7l-1 4-12-2-2.8-.5-2.6-.4-2.2-.4c-2.4-.7-2.4-.7-5.2-2.1a48 48 0 00-11.5-3.6q-9.4-2-18.7-5v4l3.2 1.4c7.5 3.2 14.8 6.4 21.8 10.6-1.5.7-1.5.7-4 1q-3.8-1.4-7.5-3.3l-2-1-7.8-3.9a12 12 0 00-9.1-1l-2.3.5q-3.3 1-6.3 2.7c1.1 3.4 2.2 4.3 4.8 6.6l2 1.8c2.1 1.6 2.1 1.6 4.2 2.6a17 17 0 015.5 4.9q3.5 4.2 7.5 8.1a53 53 0 01-9-3c-2 1.8-2 1.8-4 4v3l5 4 7 8 2.4 2.8c1.6 2.2 1.6 2.2 1.6 5.2-3.1-.3-4-1-6.3-3.4l-2.4-3-2.4-3C609 856 609 856 608 853c-2-1.2-2-1.2-4-2v-2l-4 2 1.2 1.6 4.8 6.4 1.7 2c1.3 2 1.3 2 1.3 6h2q3.2 3.6 6 7.6l1.6 2.1A52 52 0 01626 890h-3c-14-14.3-14-14.3-14-21h-2l-1-4h-2l-3-3 1 4-4 1-.3-1.9a40 40 0 00-1.7-7.1c-2.5-1.7-2.5-1.7-5-2l1.4 3.4A45 45 0 01595 873l-1-3-3 1v-2l-4 1-.3-2.1-2-13q-1.4-9.4-4-18.4a25 25 0 01-.7-12.5q2.3-2.8 5-5.2a45 45 0 0012.3-30.2q.1-10.4-1.3-20.6h-2c-1.3-5-1.3-5-1-8 3.2-4.5 8.6-7 13.3-9.8a15 15 0 004.7-5.2l-2-1c1.6-3.8 4-6.2 6.8-9.1l2.6-2.7c2.5-2.1 4.5-3.2 7.6-4.2v-2l2.4-.8 2.6-1.2 1-3 4.2-2.8q3-2 5.7-4.4c3.7-2.8 6.5-3.2 11.1-3.8 2.5-2.2 2.5-2.2 5-5l7.6-7.8c5.3-5 9.1-4.3 16-3.2"/><path fill="#a6db3c" d="M625 358c28.7.8 57.8 9.2 83 23v2l2.2.8c4.4 1.9 8 4.5 12 7.2l2.5 1.7q8.7 6 16.4 13.5a8 8 0 003.9 2.8v2l3 1 3.7 4.4a150 150 0 0145.5 105.2V545l-.1 41-.1 45c-3-1.8-3-1.8-6-4-.4-3.7-.4-3.7 0-7-1.4 1.1-1.4 1.1-1 4v3l-14-2v-2.4l-1.4-93.7c-.3-20.8-3.8-46.3-15.6-63.9v-4l-3-1-2-6-3-3-2.2-3.6c-5-8.8-5-8.8-12.8-14.4l-1.2-2.6A39 39 0 00720 416c-2.4-2.1-2.4-2.1-4-4v-2l-1.6-.7q-4.9-2.9-9.5-6-8.7-6-17.9-11.3l-2.2-1.2A135 135 0 00644 377l-2.2-.4c-37-6.9-75-2.1-108.8 14.4l-2.5 1.2q-7.9 3.9-15.2 8.6a21 21 0 01-7.3 2.2l-.2 3.7c-.4 3.3-.9 4.4-2.9 7.3-4 2.8-6 2.6-10.9 2-2.2-1.6-2.9-2.5-3.4-5.1v-4.6a9 9 0 013.4-6.3q5.3-.2 10.8.3l3.2-.3c1.6-2.3 1.6-2.3 3-5q3.3-2.6 7-4.7l1.8-1.2q4.5-2.8 9.2-5.1l2.9-1.6a132 132 0 0125.1-9.8l6.4-2.1q7-2.3 14.4-3.6l2.5-.4 7.7-1.5 2.8-.5q11.9-2.1 24-2.1l3.8-.1 9.4-.3v-3z"/><path fill="#72c61d" d="m322 887 1 4h3v2l2.4-.6 2.6-.4c2 2 1.6 6.3 1.9 9.2 1.2 11.8 3.2 22.6 8.1 33.5 1 2.3 1 2.3 1 4.3l-3 1.1a30 30 0 00-9.3 6.6 11 11 0 01-5.7 2.3c2.6 19.8 30.7 42.5 45.4 54q4.2 3.3 8.2 6.8c13.2 11 27.7 20.5 41.9 30.1l2.2 1.6a385 385 0 0029.1 18.6l6.2 3.9 2.2 1.4q23.7 15 48.8 27.6v2h6v1c-11.3.7-20.5-1-31-5l-3-1.2a521 521 0 01-81.6-39.3l-10.1-5.9a359 359 0 01-72-55 122 122 0 01-29.6-43.7l-.7-2a77 77 0 01-4.3-27.3v-8.4c.4-2.7 1.1-3.5 3.3-5.2l9.6-3.7c4.4-1.7 4.4-1.7 7.4-5.3 4.6-3.1 9.6-4.6 15-5.6 2.2-.4 2.2-.4 5-1.4"/><path fill="#fafcef" d="m597 719 1 3c-2.3 3.2-2.3 3.2-5 6h-2c0-2 0-2 2.4-4.5l2.6-2.5zm14 3a28 28 0 01-4.7 7.3l-1.9 2-6 6.4-2 2-3.9 4c-3.5 3.4-3.5 3.4-4.6 8l5 9.9c1.1 2.4 1.1 2.4 1.1 6.4h2a57 57 0 01-3.6 42.1c-2.6 4.2-5 7.8-8.8 11-2.8 3-3 3.7-3.2 7.6q.5 5.4 2 10.4 2.3 8.4 3.4 16.9a1769 1769 0 007.2 43.1l3.5 20.5c.9 4.5 1.1 8-.9 12.2-1.6 2.2-1.6 2.2-3.6 4.2-3.8.5-7.6.3-11.4.3h-3.8a1187 1187 0 01-50-1.6l-11.5-.6h-3.5c-9-.6-9-.6-12-3.6L498 928l-1-1c0-9.5 2-19.1 3.6-28.5l2-12.4 2.5-15.4 1.8-13q1-7.5 2.7-14.8c3-11 3-11 1.5-21.9-1.4-1.8-1.4-1.8-4.1-4-4-4.8-4-4.8-4-7h-2a62 62 0 01-3-46c3.2-7.6 7.2-15 14-20h2v-3l2.2-.8a45 45 0 007.8-4.2c1.3-3.7 1.3-3.7 1-7l2 1v3l27-2v2l3.3.3q5.5.8 11.1 2l3.2.8 2.4.9 1 3 5 1 1.7-2.4 2.2-3 2.2-3.1c1.9-2.5 1.9-2.5 3.9-3.5-.5 4.4-2.1 6.7-5 10-2.3 3.4-2.2 5-2 9a33 33 0 0010.3-9l2.8-3.5 1.5-1.8q3-3.7 6.4-7.5l2.1-2.5c1.9-1.7 1.9-1.7 4.9-1.7m-93.9 37a41 41 0 00-9.1 31 41 41 0 0016.7 26.3c3 4.1 1.2 10.7.5 15.5l-3.3 20-6.2 37.8c-2.7 15.1-2.7 15.1-3.7 30.4 1.7 1.7 4.2 1.2 6.6 1.3l3.6.1 4 .2h2q26.5.7 52.8.4a283 283 0 00-4.2-33.6q-2.3-14.4-5.4-28.7-2.1-9.9-3.6-19.9l-.6-3.2c-1.8-11.3-1.8-11.3-1.2-16.6 2-2.3 2-2.3 4.6-4.2 7.3-6 12.7-14 14.2-23.5l.2-2.3.2-2.6a38 38 0 00-10-28.2 41 41 0 00-28.8-13.7c-11.9.6-21 4.7-29.3 13.5"/><path fill="#3a9a13" d="M340.5 938.8c3.9 1.8 5.2 5 7.3 8.6a95 95 0 0015.4 20.7c1.8 1.9 1.8 1.9 1.8 3.9l1.7.7a25 25 0 016.4 5.4q7.5 7.4 15.9 13.9l5.2 4.3c25.7 21 54 38 83 54.1l8.6 5a990 990 0 0031.2 17 62 62 0 0025.7 8l5.3.6c-3.7 4.4-9.4 5.9-14.7 8l-5.7 2.2a39 39 0 01-19.6 3.8l-1-2-7.2-3.3c-11-5-21.4-11.4-31.8-17.7l-3.8-2.3a940 940 0 01-25.6-16.2q-11.2-7-22.1-14.6l-1.8-1.2A489 489 0 01372 1006l-1.6-1.4A227 227 0 01329 962l-2-2.6-1.7-2.4-1.4-2c-.9-2-.9-2-.9-4.6 1-2.4 1-2.4 3.3-3.5l2.7-.9 6.7-5.6c2.3-1.4 2.3-1.4 4.8-1.6"/><path fill="#91d728" d="M692 444q4.9 4.3 9.6 8.8a23 23 0 005.4 4.2q1.5 2.5 2.7 5c1.3 2.2 1.3 2.2 3.7 4.3 3 3 4.8 6.2 6.6 10l1 2a114 114 0 018 23.7l.8 3.2c2.6 11.8 2.7 23.5 2.6 35.6l.1 17.3v8.7c-.5 2.2-.5 2.2-2.4 4-2.1 1.2-2.1 1.2-4.1 1.2v-1.9l-.2-27c0-18.4-1.2-35.4-9.9-52-.9-2.1-.9-2.1-.9-6.1h-2l-1.2-3.1c-1.3-3.2-3-5.6-5.3-8.2l-3.2-4a92 92 0 00-29.4-24.7 102 102 0 00-25.9-11l-3.2-1c-29.9-7.5-62.5-.8-89.1 13.8a129 129 0 00-59.4 77.8c-1.9 8-2.4 16-2.6 24.2v2.3l-.4 12.5-.3 12.4-16-4 2-1v-3.5c-.6-42.1 7.8-79.2 37.5-110.4a138 138 0 0122-18c4.1-2.8 7.7-4.5 12.5-6.1l2.9-2.2c39.3-29.4 103-15 138.1 13.2"/><path fill="#227511" d="M455.1 572.7H467c12 .3 12 .3 14 2.3l.1 7.4V626l-.1 28c-24-2.1-24-2.1-33.8-3.4l-2.9-.4A454 454 0 01413 645a2679 2679 0 01-.6-50.8c-.3-10.7-.3-10.7 1.7-14.1a26 26 0 0112.6-5.4l2.2-.5a115 115 0 0126.2-1.5"/><path fill="#5fbb1d" d="m314 666-1.4 2.2-5.6 8.8-1.3 2c-4.7 7.7-5 15.6-5.3 24.4l-.2 3.4a942 942 0 00.2 50q.5 38.7 2 77.2.7 21 .6 42v3.5l-.1 3c0 2.5 0 2.5 1.1 4.5l7-1c-4 3.5-6.8 5-12 5l-9.8 5.5C286 898 286 898 282 898a280 280 0 01-1.2-34.7V813l-.2-89.6c0-16.7 1.4-33.8 12.7-47.1 4.2-4 14.5-13.4 20.7-10.3"/><path fill="#9ddd43" d="M218 542h2l.8 2.9c2.1 5 6.2 8 10.2 11.4q3.3 3 6.2 6.3 6.9 7.9 14.5 15 2.7 3 5.6 5.6l2.4 2.4c2.3 2.4 2.3 2.4 4.4 5 1.8 2.6 1.8 2.6 4.7 4.2a38 38 0 018 7.7q4.2 4.7 8.7 9 5.1 5 10 10.4 5.8 6.7 12.4 13a176 176 0 0110.8 11.5q2 2.4 4.3 4.6c-1 3-1 3-2.6 4l-6.5 3.3-2.3 1c-4.9 2.4-8.2 3.5-13.6 1.7a50 50 0 01-7-6.1l-5.4-5.3q-6.8-6.5-14.2-12.3a542 542 0 01-21.9-18.4c-4-3.4-7.2-6.9-10.5-10.9l-7-6-13.4-12a304 304 0 00-20.6-18l1-5 .5-2.7c1.3-5.9 2.7-9.6 7.7-13.2 1.8-1.1 1.8-1.1 5-2.1 3.1-.8 3.1-.8 4.7-4.1z"/><path fill="#49a219" d="M628 359c.7 2 .7 2 1 4h-2.3c-17 .3-33 1.5-49.7 5l-2 .4q-10.4 2.1-20 5.6l-3.2 1q-11.8 4.1-22.8 10l-1.9 1q-4.7 2.3-9.2 5.3l-1.9 1.2c-3 1.9-4.7 3-6.5 6.3L508 401c-3.3.4-3.3.4-7 .1s-3.7-.3-7-.1c-2 3.1-2.3 3.9-2.2 7.4v2.3c.2 2.5 1 4.1 2.2 6.3l-3 2.6a178 178 0 00-33.7 41C436.5 492.7 436.7 533 436 570l-18 3-.2-27.1c-.3-24.4 2-48.4 12.2-70.9l1-2c4.3-9.8 8.8-19.3 15-28l2-2.8a207 207 0 0126-30.2l1.7-1.6C510.5 379 579.2 342.7 628 359"/><path fill="#dff79b" d="M854 732q2 3.2 3.7 6.6l1 1.9A34 34 0 01862 753l-23 9.8-2.1.8c-10.6 4.4-10.6 4.4-13.9 4.4v2l-7-1 1 7 1.8-.6 8-2.5 2.7-.9 2.7-.8 2.5-.8c2.5-.4 4-.2 6.3.6h-3l1.1 1.8c.9 2.2.9 2.2 0 4.5L838 779l2 2 3.3-1c3.5-1 4.4-1 7.7 0-14.7 5-14.7 5-22.1 6.5q-3.5 1-6.8 2.7-4.2 1.4-8.5 2.1-10.5 2.3-20.8 5.8l-7.5 2.3-2 .7a1161 1161 0 01-34.4 10.1l-3.8 1.1c-3.1.7-3.1.7-6.1-.3l-2 3v-17.2l-.1-3.7v-3.4c.1-2.7.1-2.7 1.1-4.7l5-2.5 3-1.4 3.3-1.5 6.3-3 2.9-1.3c2.5-1.2 2.5-1.2 4.6-2.9 2-1.5 3.7-2.2 6-3 8.4-3.3 16.5-7.5 24.6-11.5l22-10.5 8-3.8 2.6-1.3 2.7-1.3 10.9-5.4 2.8-1.4 2.7-1.3 2.4-1.2c2.6-.8 3.7-.8 6.2.3"/><path fill="#c6e65a" d="M613.1 362.8h3.6a191 191 0 0198.5 29.2l2.4 1.4 5.4 3.6v2l1.6.7q6.9 3.7 12.4 9.3l2.8 2.2c13.2 11 23.4 27.7 31.2 42.8l1.1 2c8.1 15.5 8.1 15.5 6.9 25-2.4-3.7-4-6.5-4-11h-2q-1.9-6-3-12l-3-1v-2l-1.7-.1c-4.5-1.7-6.7-5.5-8.6-9.7l-2.4-6c-1-2.4-1-2.4-3.3-2.9q-1 0-2-.3c-4-4.3-4-4.3-4-7h-4v5l3 1v2h2v2c-2.8-.4-3.8-.7-5.6-3l-1.4-2-3-1-1.2-2.6A39 39 0 00720 416c-2.4-2.1-2.4-2.1-4-4v-2l-1.6-.7q-4.9-2.9-9.5-6-8.7-6-17.9-11.3l-2.2-1.2A135 135 0 00644 377l-2.2-.4c-37-6.9-75-2.1-108.8 14.4l-2.5 1.2q-7.9 3.9-15.2 8.6a21 21 0 01-7.3 2.2l-.2 3.7c-.4 3.3-.9 4.4-2.9 7.3-4 2.8-6 2.6-10.9 2-2.2-1.6-2.9-2.5-3.4-5.1v-4.6a9 9 0 013.4-6.3q5.3-.2 10.8.3l3.2-.3c1.6-2.3 1.6-2.3 3-5q3.3-2.6 7-4.7l1.8-1.2q4.5-2.8 9.2-5.1l2.9-1.6a132 132 0 0125.1-9.8l6.4-2.1q7-2.3 14.4-3.6l2.5-.4 10.5-2a115 115 0 0122.3-1.7"/><path fill="#eef87b" d="M350 925q3.4 4.3 5.5 9.3c9.6 20.6 26.7 37 44.5 50.7l3 2.4q12.6 9.8 26 18.6l3.3 2.2c27.8 18.2 57.5 33.6 86.8 49.2l10 5.6q4.7 2.4 9.9 4l.1 2 .3 2.8.2 2.7c.3 2.7.3 2.7 2.4 5.5l-4.4.3h-2.4c-9-1-17.2-6.2-25-10.3l-3.3-1.7a762 762 0 01-37.2-20.9A504 504 0 01367.4 974a116 116 0 01-25.4-34l-1.2-2c-1-2.5-.9-3.5.2-6 1.6-1.7 1.6-1.7 3.4-3.2l2-1.5c1.6-1.3 1.6-1.3 3.6-2.3"/><path fill="#76cb2c" d="M138 722q8.9 2.7 17.5 6.5 7.4 3.2 15.3 5.7Q178 737 185 740v2l3.9.2c3.7.4 6.4 1.3 9.7 3a222 222 0 0021.8 9.8l2.4 1 6.2 3-4 12 2 1h-3l-.3 3.1c-.7 3.9-1.8 6.5-3.7 9.9q-7.6-.7-15-3v-2l-3 .2c-3 0-5.2-.5-8-1.5q-8.6-2.8-17.4-4.9-14.7-3.7-29.2-8l-3.3-1-3.2-1-2.7-.7c-2.7-1.3-3.2-2.3-4.2-5.1-2.6-10.4-4.3-21.6 1-31.3z"/><path fill="#b8e951" d="M854 779v2h2c5.6 7.7 6.2 15.7 7 25q-16.5 4.6-33.2 8.8-1.3.1-2.6.6a461 461 0 01-30 6.1l-3.3.6-3.2.7-2.9.5c-2.8.7-2.8.7-5.7 1.7a78 78 0 01-10.2 2.4l-2 .4-18.4 3.5q-5.3 1.1-10.5 2.7-1.3 6.6-1.6 13.3v2.3l-.4 5.4h-1v-51h1l1 7q15.5-3.7 30.9-8.2l2-.6 31.6-9.6a131 131 0 0116.3-4.2q4.4-1 8.5-2.5l11-3.5c11-3.4 11-3.4 13.7-3.4"/><path fill="#90d73a" d="M814.7 853.9h8.3l30 .1 2.2 8.9c2 8 2 8-.2 12.1l-1 7a669 669 0 01-81.2-6 208 208 0 00-21.4-1.7q-5.9 0-11.4-1.3l-1 5h-1v-22h5.9l52.3-.8h3.5c5-.3 10-1.3 15-1.3"/><path fill="#7dca27" d="M729 770a168 168 0 011.1 27.9v24L730 926h-1l-1-14-5-1c-1.6-1.4-1.6-1.4-3-3l-8.6-6.3-2.4-1.8q-7-5-14.5-9.4-6-3.7-11.4-7.9-4.8-3.4-10-6.6l-3.1-2v-2l-2.3-.3c-3-.8-3.7-1.5-5.7-3.7a21 21 0 00-7-4.1c-5.4-2.2-9.8-6.1-14.4-9.7l-8-5.9q-6.5-5-12.6-10.3l1-3 3.2 2c2.7 1.6 3.4 2 6.6 1.7l2.2-.7 2 1 .5 2.6c2.3 5.3 6.8 7.3 11.5 10.4l5.8 4.1 2.7 2q3 2.3 5.9 4.8c2.4 2.3 2.4 2.3 5.1 2.6 3 .6 4.5 2 6.7 4q4.4 3.5 9 6.6l11 8 8 5.5q6.2 4.4 11.8 9.4l2 1 1-128h-8v-1h11l2.3-1c3-1.1 4.6-.9 7.7 0"/><path fill="#e4f661" d="m622.5 756.3 1.5.7-3 1.5-4 1.9-2 1c-3.6 1.6-3.6 1.6-6 4.6 7.8-2 15.3-4 22.6-7.1A64 64 0 01644 756a14 14 0 01-6.2 3.7l-2.5 1-2.8 1-2.8 1.1q-7 2.7-14 4.8l-2.5.8-4.7 1.3c-2.4.6-2.4.6-5.5 2.3-1.6 3.5-1.6 3.5-2 7l2.5-.7A64 64 0 01623 776c-2.1 2.1-3.1 2.4-6 3l4 2h-2c-6.4-.2-11.9.4-18 2l-2 7h2.3l14.2-.2h6.8c2.7.2 2.7.2 5.7 2.2l1 2h-5.7l-3.3-.1c-2.6 0-4.5.5-7 1.1l-2.3-.8c-3.4-.2-4 .5-6.5 2.6-1.8 1.7-3 3-4.2 5.2q9.8 2.8 19.8 5l2.3.5q7.1 1.6 14.2 2.8c9.9 2 19.3 5.4 28.7 8.7l-1 4-12-2-2.8-.5-2.6-.4-2.2-.4c-2.4-.7-2.4-.7-5.2-2.1a48 48 0 00-11.5-3.6q-9.4-2-18.7-5v4l3.2 1.4c7.5 3.2 14.8 6.4 21.8 10.6-1.5.7-1.5.7-4 1q-3.8-1.4-7.5-3.3l-2-1-7.8-3.9a12 12 0 00-9.1-1l-2.3.5q-3.3 1-6.3 2.7c1.1 3.4 2.2 4.3 4.8 6.6l2 1.8c2.1 1.6 2.1 1.6 4.2 2.6a17 17 0 015.5 4.9q3.5 4.2 7.5 8.1a53 53 0 01-9-3c-2 1.8-2 1.8-4 4v3l5 4 7 8 2.4 2.8c1.6 2.2 1.6 2.2 1.6 5.2-3.1-.3-4-1-6.3-3.4l-2.4-3-2.4-3C609 856 609 856 608 853c-2-1.2-2-1.2-4-2v-2l-4 2 1.2 1.6 4.8 6.4 1.7 2c1.3 2 1.3 2 1.3 6h2q3.2 3.6 6 7.6l1.6 2.1A52 52 0 01626 890h-3c-14-14.3-14-14.3-14-21h-2l-1-4h-2l-3-3 1 4-4 1-.3-1.9a40 40 0 00-1.7-7.1c-2.5-1.7-2.5-1.7-5-2l1.4 3.4A45 45 0 01595 873l-1-3-3 1v-2l-4 1-.3-2.1-1.5-9.7-.5-3.3q-1.4-9.4-4-18.4a25 25 0 01-.7-12.5q2.3-2.8 5-5.2a45 45 0 0012.3-30.2q.1-10.4-1.3-20.6h-2l1-4 1 2c2.9.3 2.9.3 6 0l1.2-1.3c2.7-2.6 6-3.9 9.2-5.5l2-1c5-2.3 5-2.3 8-1.9"/><path fill="#e6f660" d="m684.1 682.7 5.9 1.3 2.5.3A47 47 0 01722 702c5 7 8.3 13.5 8.2 22.3v22.4l-.1 11-.1 21.3h-1v-9c-5.2.4-5.2.4-10 2-.7 2.5-.7 2.5-1 5h-1v-7h-5v-2l4-1 .2-30.4v-2.5a39 39 0 00-9.8-28.3 43 43 0 00-24.6-10.9l-2.7-.4c-4.3-.7-6.5-.8-10.5 1.2q-3.4 2.9-6.2 6.4a19 19 0 01-7.4 5.9l-2 3-7 1c-1.7 1.3-1.7 1.3-3 3l-5 3c-3 2-5.7 3.7-8.2 6.3L628 726h-2v2l-3.5 2.6A42 42 0 00609 744l3 1c-4 5.3-8 8.5-13.8 11.6-3.1 2-4 4-5.2 7.4l-3-7 3-1c1.7-3 1.7-3 3-6h2l1-4h2l.7-1.7c1.7-3 3.8-5 6.3-7.3l1.5-1.6q6-6 12.8-11.3 5.8-4.6 11.5-9.4c2.2-1.7 2.2-1.7 4.2-1.7v-2c5.4-4 5.4-4 8-4l-.4-5.2-.3-3q-.4-3.5-1.3-6.8v-3c5.8-.2 10.5.1 16 2v2h-2v2h-2v2l-5 1v6c3.9-.6 6-2.4 9-4.9l3-2.4q3-2.7 6-5.8c8.4-8.7 8.4-8.7 15.1-8.2"/><path fill="#c1e43b" d="M483 734h2v3l1.7.2c3.3 1.1 5 3.3 7.3 5.8l2.3 2.3 1.7 1.7 6-5-1-2.3-2-5.7 5 2v3q1.2 0 2.3.3c3.3.9 3.9 2 5.7 4.7l-1.5 1a47 47 0 00-16.5 33l-.2 3.3c-.3 7.7.8 13.8 3.5 21 .7 2.7.7 2.7 0 4.9L498 809l-2 3v-2l-1.7.7q-14 6.2-28.4 12l-2 .7c-4.5 1.7-4.5 1.7-7.9.6 3-1.9 5.5-3.4 9-4l-3-4c4.6-4.6 9.9-5.6 16-7v-4c-5 1.1-5 1.1-9 4-1.9.5-1.9.5-4.1.8l-2.4.4-2.6.4-5 .7-2.2.3c-1.7.2-1.7.2-2.7 1.4a67 67 0 01-21 2v-2q8.9-2.7 18-4l3.5-1a67 67 0 0110.5-2l1-3 8-1-1-5-9-1v-2l13-1c.3-5.6.3-5.6-1-9-.3-3.8-.2-4.7 2-8l-3.5-.4a94 94 0 01-12.4-2.5q-6.7-1.8-13.5-3.2l-3.6-.9-1-2c6.2-3 17.5.5 24 2l1 1 6.6 1 3.6.6 2.8.4 2-5-3.4-1.7L462 758l1-2 5.7 2.6 3.2 1.5c3.6 1 4.9.7 8.1-1.1v5l8 1c1.6-2.8 1.6-2.8 2-6h-2v-2l-1.6-.7A70 70 0 01472 746v-2c5 1.5 8.2 4.6 12 8 3-1.4 3-1.4 5.4-3.9.8-2 .8-2 0-4-1.4-2.3-1.4-2.3-4-4.7-2.4-2.4-2.4-2.4-2.4-5.4"/><path fill="#61bc1a" d="m322 887 1 4h3v2l2.4-.6 2.6-.4c2 2 1.6 6.3 1.9 9.2 1.2 11.8 3.2 22.6 8.1 33.5 1 2.3 1 2.3 1 4.3l-3 1.1a28 28 0 00-9.3 6.8c-1.7 1.1-1.7 1.1-4 .8l-1.7-.7 1.5-1 2-1.4 1.9-1.3c1.7-1.2 1.7-1.2 2.6-3.3-4.2 1.9-4.2 1.9-7.6 4.8L323 946c-2.2-.3-2.2-.3-4-1l-1-5-2.2 2.3c-4.7 4.5-11 8.7-17.8 8.7-5.5-9.7-6.3-19-6-30l10-1-.1-5-.1-6.3-.2-3.3v-6c.4-2.4.4-2.4 2.2-4.1q3-1.8 6-3.1l2.2-1 2.3-.9 2.2-1z"/><path fill="#5dba14" d="M775 554h1v63l3 1h-3v7l2 .2 2.8.2 2.6.3q3.4.4 6.6 1.3l-1-7h2l1 7 4 1c.4 2.6.4 2.6 0 6-6.2 7.9-16.6 10.6-26 12q-5.7.4-11.4.3h-3c-9.3 0-19.7-.6-27.6-6.3-3.5-3.5-3.5-7-3.5-11.7v-18.6l-.1-2.2c0-3.7.3-5.2 3-7.9q4.3-2.5 9.3-3.8c4.2-1.1 4.2-1.1 8.3-2.8l1-26h1l.4 12.8.2 3.6v3.5l.2 3.3c.1 2.7.1 2.7.8 5 .4 1.8.4 1.8-1.2 5-2.8 3.2-4.2 4-8.4 4.8h-7v24l7-2a97 97 0 0128-3v-7h8z"/><path fill="#b7e641" d="M481 575c12 4 12 4 16 8 .2 3 .2 3 .2 7v27l-.2 13v26l-9.9-.7c-3.1-.3-3.1-.3-6.1-1.3z"/><path fill="#e5f881" d="M891 766c4 6.5 4 6.5 4 11l2 .4c2 .6 2 .6 3 1.6l.6 8v2.4l.4 5.6-29.9 10-2.8.9-2.7.9-2.4.8a11 11 0 01-6.2-.6l6-1-1.2-7.6-.4-2.1A36 36 0 00856 783v-2h-2v-2l-3-1 4-1v2l22.5-9.3 3.6-1.5c3.8-1.6 5.8-2.3 9.9-2.2"/><path fill="#c9eb41" d="M502 810c3.6 3.4 6.3 6.8 9 11l2 2c.1 8-1.4 16.1-3 24l-1.8.3c-3.6 1.1-5 3.8-7.2 6.7l-1 1.9q-2 3.6-4.6 6.9l-2 2.4-1.4 1.8-2-1 1.5-2.3 2-3 2-2.9c1.8-2.9 1.8-2.9 1.5-6.8q-3 3.6-5.6 7.3L490 860h-2l-2 4-2-2c12.8-17.9 12.8-17.9 16.6-21.6 2.3-2.3 4.4-5 4.4-8.4-3.7.6-5.4 2-8 4.8l-2 2.1-2 2.1-5 5h-2l2-9-2.1 1.8a292 292 0 01-33.8 24.8q-7.8 5.2-15.2 11.1c-8.1 6.3-8.1 6.3-10.9 6.3v6l-3 1v-3a135 135 0 00-22.5 14.8l-2.3 1.6c-13.3 9.6-13.3 9.6-16.2 9.6 1-3.3 1.5-3.6 4.2-5.5l2-1.4 2.3-1.5 4.7-3.3 2.4-1.6a1219 1219 0 0028-20l7.3-5.1q10.5-7.4 20.6-15.3l1.7-1.3 4.9-3.8c2.9-2.2 2.9-2.2 5.5-3.7 2.9-1.8 5-4 7.4-6.5l6.8-5.2c4.2-2.9 4.2-2.9 7.2-6.8h2v-5l-1.8 1.3c-7.7 5.5-7.7 5.5-13.2 4.7 1.9-5.2 6-6.5 10.8-8.7 3.5-1.4 6.5-2 10.3-2.1 2.3-.2 3.9-1 5.9-2.2v-2.9c0-3.1 0-3.1 1-5.1"/><path fill="#1c6711" d="M428 576v70c-10.1 0-10.1 0-15-1a2679 2679 0 01-.6-50.8c-.3-10.9-.3-10.9 1.9-14.2 4.5-3.8 8-4 13.7-4"/><path fill="#8dd824" d="M315 890c-2 2-2 2-12 7l-1 23c-3.2 1.6-6.4 1-10 1l1.1 9.7A76 76 0 00296 944l1 6 3 1 4-3 5-2c3.4-1.4 4.8-3 7-6h2l2 5c3-.4 4.2-1.1 6.6-3 2.4-2 2.4-2 5.4-2-1.5 4.2-4.2 5.8-8 8h-2v2h-4v-3c-5.2 2.8-9 6.7-13.2 10.8-3 2.4-5 2.8-8.8 3.2l-1 2a95 95 0 01-13.2-46.1l-.1-3v-5.6c.4-2.8 1-3.6 3.3-5.3l9.6-3.7c4.4-1.7 4.4-1.7 7.4-5.3 4-2.7 8-4.6 13-4"/><path fill="#4ea41c" d="M628 359c.7 2 .7 2 1 4h-2.3c-17 .3-33 1.5-49.7 5l-2 .4q-10.4 2.1-20 5.6l-3.2 1q-11.8 4.1-22.8 10l-1.9 1q-4.7 2.3-9.2 5.3l-1.9 1.2c-3 1.9-4.7 3-6.5 6.3L508 401c-3.2.4-3.2.4-7 .1-4.8-.5-4.8-.5-9 1.4l-1 1.5v-3l-4 1a61 61 0 0116.2-12.3C535.6 369.7 589 346 628 359"/><path fill="#edf95b" d="m622.5 756.3 1.5.7-3 1.5-4 1.9-2 1c-3.6 1.6-3.6 1.6-6 4.6 7.8-2 15.3-4 22.6-7.1A64 64 0 01644 756a14 14 0 01-6.2 3.7l-2.5 1-2.8 1-2.8 1.1q-7 2.7-14 4.8l-2.5.8-4.7 1.3c-2.4.6-2.4.6-5.5 2.3-1.6 3.5-1.6 3.5-2 7l2.5-.7A64 64 0 01623 776c-2.1 2.1-3.1 2.4-6 3l4 2h-2c-6.4-.2-11.9.4-18 2l-2 7h2.3l14.2-.2h6.8c2.7.2 2.7.2 5.7 2.2l1 2h-5.7l-3.3-.1c-2.6 0-4.5.5-7 1.1l-2.3-.8c-3.4-.2-4 .5-6.5 2.6-1.8 1.7-3 3-4.2 5.2q9.8 2.8 19.8 5l2.3.5q7.1 1.6 14.2 2.8c9.9 2 19.3 5.4 28.7 8.7l-1 4-12-2-2.8-.5-2.6-.4-2.2-.4c-2.4-.7-2.4-.7-5.2-2.1a48 48 0 00-11.5-3.6q-9.4-2-18.7-5v4l3.2 1.4c7.5 3.2 14.8 6.4 21.8 10.6-1.5.7-1.5.7-4 1q-3.8-1.4-7.5-3.3l-2-1-7.8-3.9a12 12 0 00-9.1-1l-2.3.5q-3.3 1-6.3 2.7c1.1 3.3 2 4 4.6 6.2l1.9 1.6 1.5 1.2-1 2c-8.6-5.7-8.6-5.7-10.1-10.8.1-3.2.1-3.2 1.1-5.2l4 1-1-3 5-3-6-4 1-1.6a18 18 0 001.2-8.2v-10.4q0-9-1.2-17.8h-2l1-4 1 2c2.9.3 2.9.3 6 0l1.2-1.3c2.7-2.6 6-3.9 9.2-5.5l2-1c5-2.3 5-2.3 8-1.9"/><path fill="#c3ef71" d="m228 685 1 2c2.4 1.3 2.4 1.3 5 2l3-1 8.2 3.6a72 72 0 017.8 4.4v2l2.7-.7c3.3-.3 3.3-.3 6.2 1.5 2.1 2.2 2.1 2.2 2.1 4.2l2.8.9q3.7 1.2 7.2 3.1l1-7c1.2 3.6 1 6.6.6 10.3-1 12.8-.8 25.6-.9 38.4v11.1L274 854h-1l-.5-29.1q-.6-25.5-.5-51v-3.2l.1-2.6c0-2.2 0-2.2-1.1-4.1l.7-4.7c.6-5.2.4-10.5.4-15.7v-3.7l-.1-8.9-2.2-1.2-9.7-5.2-3.5-1.8-3.3-1.8-3-1.6C248 718 248 718 247 716l1.9-.2c2.4-.6 2.4-.6 3.2-3.2l.9-2.6 2-2c.2-2.6.2-2.6 0-5l-2.2-.4-7.8-1.6-1 2c-4.7-.7-8.6-2.4-12.8-4.4l-4-1.8-2.1-1-6.5-2.4C215 692 215 692 214 690l12 3z"/><path fill="#2c8612" d="M480 574c1.7 1.7 1.1 3.9 1.1 6.1V626l-.1 28-14-1v-2h2v-1.7a1704 1704 0 01.7-65.6v-2.6l.1-2.3c.2-1.8.2-1.8 1.2-3.8q4.4-1.4 9-1"/><path fill="#bfe974" d="M123 549c4 1.7 7.2 4.5 10.6 7.3q9 7.1 18.2 14a401 401 0 0117 13l7.2 5.3q8.7 6.3 17 13l15.8 12 15.3 12q7.6 6 15.5 11.9l2 1.5a115 115 0 0010.4 7l4 4 2.3 1.4q4.1 2.6 7.6 5.7 7.5 6.2 15.5 11.6 3.6 2.4 6.6 5.3l-5 5-.8-1.8a13 13 0 00-4.8-5l-2.1-1.4-2.3-1.5-4.6-3.3-2.3-1.5q-7.6-5.2-14-11.5-3.4-3.1-7.2-5.7-7.2-5.1-14-10.9l-11.4-9.1-11.3-9a312 312 0 00-14.6-11.2q-8-5.9-15.6-12.2l-12.6-10q-7.8-5.9-15-12.4-6.3-5.3-12.8-10.3C127 553.9 127 553.9 123 550z"/><path fill="#cfef8c" d="M280 723h1l1 175c7.8-3 7.8-3 15.1-6.7q1.2-.8 2.3-1.3l1.6-1v2c3-1 4.8-1.8 7-4h3l1-3c3.6-1.7 3.6-1.7 7-3l-.4-3.6c0-4.5 1.6-6.8 4.7-10 2.1-1.7 4-2.7 6.7-3.4 1 1 1 1 1 4v3h-3l-.4 1.9-.5 2.5-.5 2.4c-.6 2.2-.6 2.2-2.6 4.2h8v11h-6v-2h-3l-1-3-2 1c-3 1-3 1-6.3 1.4-4.4.7-8 2.1-11.7 4.6l-2 3-7.5 3c-5.2 1.8-5.2 1.8-9.5 5-.4 2-.4 2-.4 4.1l-.1 2.5-.1 2.5-.1 2.6-.3 6.3h-1q-1.2-8.1-1.1-16.3v-47.6z"/><path fill="#f8fb82" d="M731 407c16.3 4.3 28.3 26.4 36.3 40l3.7 7 1.1 2c8.1 15.5 8.1 15.5 6.9 25-2.4-3.7-4-6.5-4-11h-2q-1.9-6-3-12l-3-1v-2l-1.7-.1c-4.5-1.7-6.7-5.5-8.6-9.7l-2.4-6c-1-2.4-1-2.4-3.3-2.9q-1 0-2-.3c-4-4.3-4-4.3-4-7l-9-1v-4c-1.7-2-1.7-2-3.9-3.7l-2.2-1.8c-1.8-1.5-1.8-1.5-3.9-2.5l-1 2-3-3 1-2 2 1-2-5 3.4-.4c3.4-.2 3.4-.2 4.6-1.6"/><path fill="#ebf668" d="M493 792h3l2.1 6.3 1.2 3.5c.7 3.2.7 3.2 0 5.4L498 809l-2 3v-2l-1.7.7q-14 6.2-28.4 12l-2 .7c-4.5 1.7-4.5 1.7-7.9.6 3-1.9 5.5-3.4 9-4l-3-4c4.6-4.6 9.9-5.6 16-7v-4c-5 1.1-5 1.1-9 4-1.9.5-1.9.5-4.1.8l-2.4.4-2.6.4-5 .7-2.2.3c-1.7.2-1.7.2-2.7 1.4a67 67 0 01-21 2v-2q8.9-2.7 18-4l17-5 2.8-.8a85 85 0 0116.8-3.1c4.5-.3 4.5-.3 8-2.8 1-2.1 1-2.1 1.4-5.3"/><path fill="#c3eb79" d="M292 422a27 27 0 016.2 8.8l.9 1.8a1183 1183 0 0129.7 61.7 3742 3742 0 0035.7 77.5l.9 2q2 4.4 4.7 8.3a35 35 0 014 8.5 176 176 0 008.9 19.7l9.1 18.3 1.2 2.4 1.1 2.3 1 2c.6 1.7.6 1.7-.4 4.7l-10-19.9-17.3-34.6c-22.3-44.5-22.3-44.5-32.3-66.4l-6.2-13.4-15.7-34.2-.9-2q-4.2-9.3-8.2-18.7a344 344 0 00-11.6-24.8c-.8-2-.8-2-.8-4"/><path fill="#4a9f17" d="M716 806h1l.2 89.7c0 6 0 6-2.2 8.3l-1.5-1c-11.1-7.5-11.1-7.5-22.4-14.7q-7-4.5-13.6-9.5c-2.5-1.9-2.5-1.9-5.3-3.4L670 874v-2l-2.3-.3c-3-.8-3.7-1.5-5.7-3.7a21 21 0 00-7-4.1c-5.4-2.2-9.8-6.1-14.4-9.7l-8-5.9q-6.5-5-12.6-10.3l1-3 3.2 2c2.7 1.6 3.4 2 6.6 1.7l2.2-.7 2 1 .5 2.6c2.3 5.3 6.8 7.3 11.5 10.4l5.8 4.1 2.7 2q3 2.3 5.9 4.8c2.4 2.3 2.4 2.3 5.1 2.6 3 .6 4.5 2 6.7 4q4.4 3.5 9 6.6l11 8 8 5.5q6.2 4.4 11.8 9.4l2 1z"/><path fill="#d6f388" d="m890 682 2 1q-23.1 14.5-46.6 28.2l-16 9.5q-24 14.5-48.3 28c-16.4 8.8-16.4 8.8-31.7 19-3.6 2.7-7 3.5-11.4 4.3v-4l2.2-1q16.8-8.4 32.6-18.1L788 740l18-10.5a2066 2066 0 0151.3-29.2q10.5-6 21-11.6l2.4-1.3 2.3-1.3z"/><path fill="#bfe73f" d="M483 734h2v3l1.7.2c3.3 1.1 5 3.3 7.3 5.8l2.3 2.3 1.7 1.7 6-5-1-2.3-2-5.7 5 2v3q1.2 0 2.3.3c3.3.9 3.9 2 5.7 4.7l-1.5 1a46 46 0 00-16.5 33l-.3 3.3-.7 8.7h-1l-1-9-12-4v-1l3.3-.7c4.2-1.5 4.7-2.5 6.7-6.3h3l1-6-7-4v-2l-1.6-.7A70 70 0 01472 746v-2c5 1.5 8.2 4.6 12 8 3-1.4 3-1.4 5.4-3.9.8-2 .8-2 0-4-1.4-2.3-1.4-2.3-4-4.7-2.4-2.4-2.4-2.4-2.4-5.4"/><path fill="#f3f9e7" d="M386 989a35 35 0 0111.6 7.2q8.8 7 18.4 12.8l3.5 2.4c2.5 1.7 2.5 1.7 5.5 2.6v2l1.5.7q5.1 2.8 10 6l10.4 6.5q7.7 5.1 16 9.2 6 3 11.4 6.7a239 239 0 0024.4 13.5c25.6 12.9 25.6 12.9 29.3 18.4-4.3-.5-7.5-1.5-11.3-3.5l-3-1.6-3.3-1.7-3.3-1.8a823 823 0 01-37.4-21 520 520 0 01-78-52.5l-1.7-1.4-4-3.5z"/><path fill="#effb6f" d="M502 810c3.6 3.4 6.3 6.8 9 11l2 2c.1 8-1.4 16.1-3 24l-1.8.3c-3.6 1.1-5 3.8-7.2 6.7l-1 1.9q-2 3.6-4.6 6.9l-2 2.4-1.4 1.8-2-1 1.5-2.3 2-3 2-2.9c1.8-2.9 1.8-2.9 1.5-6.8q-3 3.6-5.6 7.3L490 860h-2l-2 4-2-2c12.8-17.9 12.8-17.9 16.6-21.6 2.3-2.3 4.4-5 4.4-8.4-1.8-.8-1.8-.8-4-1-1.6 1.4-1.6 1.4-3 3h-2c.6-3 1.6-5.4 3-8l-3-1c.8-3 .8-3 2-6l3-1v-2.9c0-3.1 0-3.1 1-5.1"/><path fill="#c9e744" d="m590 821 3 1v2l1.6.8a37 37 0 015.3 3.2c2.9 2 2.9 2 5.5 2.8 3.6 1.7 5.5 4.2 8 7.2q2.6 3 5.6 6a53 53 0 01-9-3c-2 1.8-2 1.8-4 4v3l5 4a189 189 0 019.4 10.8c1.6 2.2 1.6 2.2 1.6 5.2-3.1-.3-4-1-6.3-3.4l-2.4-3-2.4-3C609 856 609 856 608 853c-2-1.2-2-1.2-4-2v-2l-6 3-4-5-1.7-1.8c-2-3.4-1.5-6.3-1.3-10.2l4 2c-2.2-2.6-2.2-2.6-5-5-2.3 0-2.3 0-4 1-3-3.7-3-3.7-3-6 1.4-1.5 1.4-1.5 3.3-3.2l1.9-1.7z"/><path fill="#97d93f" d="M213 833c19-1.3 19-1.3 23.8 2.4 3 3.7 4.6 8 6.2 12.6l2 4q-14 1.2-28 1l-2-7.2-.6-2A36 36 0 01213 833"/><path fill="#5abb1a" d="m419 577 2 1-1 68-7-1a2679 2679 0 01-.6-50.8c-.3-11-.3-11 2-14.2 1.6-1.4 1.6-1.4 4.6-3"/><path fill="#cdef7b" d="m353.2 599.9 1.8.1 3 5.4 1.7 3c1.3 2.6 1.3 2.6 1.3 4.6l-2 .6-2.4.7-2.5.8-2.1.9-1 3h-3l-1.8 1.4c-2.7 2-5 2.8-8.2 3.6l-3-2c-.2-2.6-.2-2.6 0-5h-2c-2-3-2-3-1.7-5.5.7-2.5.7-2.5 2.7-5.5l6-1.4c2.2-.5 2.2-.5 4-2.7 2.9-2.7 5.3-2.2 9.2-2"/><path fill="#d6f595" d="m190 570 4 1v2h2l2-3 2 2 12.3 11.8A430 430 0 00237 605v2l1.9.8c2.1 1.2 2.1 1.2 4.1 4.2l-3 2c.6 3 .6 3 2.8 4l2.2 1 4 3-1 2a13 13 0 01-6.4-4.4q-2.9-2.7-6-5a156 156 0 01-15.2-14.1q-5.1-5.4-10.8-10.1-3.5-3-6.6-6.4l-5.7-5.7-1.5-1.5c-2.6-2.8-2.6-2.8-5.8-4.8z"/><path fill="#369514" d="M789 628h7c.4 2.6.4 2.6 0 6-6.2 7.9-16.6 10.6-26 12q-5.7.4-11.4.3h-3c-7.7 0-15.2-.8-22.6-3.3 0-2 0-2 1.4-4.2 2.6-1.8 2.6-1.8 4.5-1.5l2.1.6c5.1 1.2 9.9 1.4 15.1 1.4h2.8A58 58 0 00788 633c1-2.6 1-2.6 1-5"/><path fill="#ccee38" d="m644 707 2 1v1l8-1-1 3-3.3.3c-3.8.7-4.4 1-6.7 3.7l-5 3c-3 2-5.7 3.7-8.2 6.3L628 726h-2v2l-3.5 2.6A42 42 0 00609 744l3 1c-4 5.3-8 8.5-13.8 11.6-3.1 2-4 4-5.2 7.4l-3-7 3-1c1.7-3 1.7-3 3-6h2l1-4h2l.7-1.7c1.7-3 3.8-5 6.3-7.3l1.5-1.6q6-6 12.8-11.3 5.8-4.6 11.5-9.4c2.2-1.7 2.2-1.7 4.2-1.7v-2z"/><path fill="#cdf17e" d="M274 909v2a1593 1593 0 01-67.3 32.4 698 698 0 01-34 15.2q-4.4 1.6-8.5 4.2L162 964l-3-1a1094 1094 0 0147-23.6 702 702 0 0027-13.5c7.5-3.8 14.7-7 22.7-9.7q6.6-2.5 12.9-6c2.4-1.2 2.4-1.2 5.4-1.2"/><path fill="#a8e151" d="M371 473c3.1 1.4 3.1 1.4 6 4a40 40 0 012 16h-3v2c-3.9 1.3-6.9 1.1-11 1-2-1-2-1-3.3-4.3l-1.3-4-.7-2.2a26 26 0 01-1.7-8.5l6.6-4c2.8-1.2 3.7-1 6.4 0"/><path fill="#77c62e" d="M746 567h1l.4 12.8.2 3.6v3.5l.2 3.3c.1 2.7.1 2.7.8 5 .4 1.8.4 1.8-1.2 5-2.8 3.3-4.2 4-8.4 4.8h-8v2.2l.3 9.6v6.7l.2 3c-.5 2.5-.5 2.5-2.4 4.1L727 632c-1.3 2-1.3 2-2 4l-.5-26.2v-2.2c0-3.7.2-5.3 2.8-8q4.4-2.5 9.4-3.8c4.2-1.1 4.2-1.1 8.3-2.8z"/><path fill="#9ed721" d="M590.3 846.7c2.7.3 2.7.3 4.7 2.3l1.8 2.5 1.8 2.5 1.4 2-1-4q5.5 5.1 10 11v4h2q3.2 3.6 6 7.6l1.6 2.1A52 52 0 01626 890h-3c-14-14.3-14-14.3-14-21h-2l-1-4h-2l-3-3 1 4-4 1-.3-1.9a40 40 0 00-1.7-7.1c-2.5-1.7-2.5-1.7-5-2l1.4 3.4A45 45 0 01595 873l-1-3-3 1v-2l-4 1c-.2-8.1-.2-8.1.6-12.1a30 30 0 00-.6-9.9c1-1 1-1 3.3-1.3"/><path fill="#d4f0a0" d="m221 545 6 5v2l2.3-.7c2.7-.3 2.7-.3 4.7 1.1l1.8 2.1q3.8 4.2 8.1 8 5.8 5 11.1 10.7c2 2 2 2 5 2.8l1-4 5-1 2 4-1.6 1.7c-1.8 3-1 4-.4 7.3-1.4 1.8-1.4 1.8-3 3l4 5-1 2-2.4-2.6a694 694 0 00-23.4-24.1q-5.7-5.7-11-11.8-3-3.4-6.9-6.1C221 548 221 548 221 545"/><path fill="#f5fb6d" d="m622.5 756.3 1.5.7-3 1.5-4 1.9-2 1c-3.6 1.6-3.6 1.6-6 4.6 7.8-2 15.3-4 22.6-7.1A64 64 0 01644 756a14 14 0 01-6.2 3.7l-2.5 1-2.8 1-2.8 1.1q-7 2.7-14 4.8l-2.5.8-4.7 1.3c-2.4.6-2.4.6-5.5 2.3-1.6 3.5-1.6 3.5-2 7l2.5-.7A64 64 0 01623 776c-2.1 2.1-3.1 2.4-6 3l4 2h-2c-6.4-.2-11.9.4-18 2l-2 7 5 1a17 17 0 01-5 4l-2 3v-13.5q.2-8.3-1-16.5h-2l1-4 1 2c2.9.3 2.9.3 6 0l1.2-1.3c2.7-2.6 6-3.9 9.2-5.5l2-1c5-2.3 5-2.3 8-1.9"/><path fill="#7fc121" d="M472 849c-5.6 5.9-12.4 10-19.3 14.3q-7.4 4.7-14.1 10.1C429 881 429 881 426 881v6l-3 1v-3a135 135 0 00-22.5 14.8l-2.3 1.6c-13.3 9.6-13.3 9.6-16.2 9.6 1-3.3 1.5-3.6 4.2-5.5l2-1.4 2.3-1.5 4.7-3.3 2.4-1.6a1219 1219 0 0028-20l7.3-5.1q10.5-7.4 20.6-15.4l1.8-1.3 3.4-2.7c4.6-3.6 7.5-4.3 13.3-4.2"/><path fill="#fefef9" d="M731 407a24 24 0 0112 7c1.7 3.7 2 6 2 10h2c1.3 3 2 4.8 2 8l-4-1v-2l-9-1v-4c-1.7-2-1.7-2-3.9-3.7l-2.2-1.8c-1.8-1.5-1.8-1.5-3.9-2.5l-1 2-3-3 1-2 2 1-2-5 3.4-.4c3.4-.2 3.4-.2 4.6-1.6"/><path fill="#eefac8" d="M780 943h1c1.1 5.8 1.1 5.8 0 8l2.3.6q7.7 3.2 14.7 7.4v3l4.7 2.6 2.6 1.4c3.1 1.2 4.6 1 7.7 0l2-1v-3h2l.3-3.4c.7-3.6.7-3.6 2.8-5l1.9-.6c1.6 1 1.6 1 3 3 .1 3.5.1 3.5-1 7-3.4 1.9-3.4 1.9-7 3l-3 1v2c-3 1-4.5 1.2-7.5 0l-5-3c-3-1.2-4.5-1-7.5 0l-.4 2.8c-.6 3.2-.6 3.2-2.6 6.2h-3l-.6 1.7a20 20 0 01-9.4 8.1c-2.7 1.6-3.7 3.6-5.2 6.3l-1.6 2.8-1.2 2.1-3-1v-2l2-1.2c2.3-1.7 2.3-1.7 2.8-5.3s.4-3.5-.8-6.5l3-2 2.3 1.6c2.5 1.6 2.5 1.6 4.7 1 2.5-2 4-4.2 5.8-6.8 1.2-1.8 1.2-1.8 2.7-3.3a20 20 0 003.7-5.7l1-2.2.8-1.6c-3.9-3.2-8.3-5.4-12.7-7.7L774 949z"/><path fill="#76c51d" d="m620 835 1.6 1c4.4 2.4 4.4 2.4 9.3 2.7l2.1-.7 2 1 .5 2.6c2.3 5.3 6.8 7.3 11.5 10.4l5.8 4.1 2.7 2q3 2.3 5.9 4.8a12 12 0 007.6 3.1l1 5c-4.6.4-4.6.4-6.6-1.3L662 868a21 21 0 00-7-4.1c-5.4-2.2-9.8-6.1-14.4-9.7l-8-5.9c-8.8-6.7-8.8-6.7-12.6-10.3z"/><path fill="#ebf443" d="m328 864 3 1v6h-3l-.4 1.9-.5 2.5-.5 2.4c-.6 2.2-.6 2.2-2.6 4.2h8v11h-6v-2h-3l-1-3-1.9 1a53 53 0 01-13.1 2c2.6-3.9 4.9-4.9 9-7h2c1.2-3 1.2-3 .7-6.7-.1-4.6 1.7-6.7 4.7-9.9 1.6-1.4 1.6-1.4 4.6-3.4"/><path fill="#fafb65" d="m684 683-1.7.6a22 22 0 00-6 5.8c-4.8 6-4.8 6-8.2 7.5a17 17 0 00-5.5 5.1c-5.2 6-11 6.6-18.6 8l1-2 .1-5.9V699c0-2.5-.4-4.5-1.1-6.9v-3c5.8-.2 10.5.1 16 2v2h-2v2h-2v2l-5 1v6c3.9-.6 6-2.4 9-4.9l3-2.4 6.2-5.7 1.6-1.6 3-3c3.4-3.2 5.5-4 10.2-3.4"/><path fill="#b4e032" d="M490 802c-.7 4.8-.7 4.8-3 7v5l-25 10.1c-3 .9-3 .9-6-.1 3-1.9 5.5-3.4 9-4l-3-4c4.6-4.6 9.9-5.6 16-7v-4h-6v-1l7.9-1 2.2-.3c5.7-.7 5.7-.7 7.9-.7"/><path fill="#c1e032" d="M369 863c-1.2 2.9-2.3 4.6-5.1 6l-2.5 1c-3.6 1.4-3.6 1.4-5.8 4.6l-.6 2.4-2 3-.8 2.4a15 15 0 01-6.2 6.6h-2v15h-1v-28l5-2v-2h-5v-2l3.9-.7c7.5-1.7 14.4-6.5 22.1-6.3"/><path fill="#98d528" d="M483 734h2v3l1.7.2c3.3 1.1 5 3.3 7.3 5.8l2.3 2.3 1.7 1.7 6-5-1-2.3-2-5.7 5 2v3l2 1c0 4 0 4-1.6 5.9l-2.1 1.8-2.2 1.8c-2 1.5-3.6 2-6.1 2.5l-.2 1.9c-.8 2.1-.8 2.1-2.5 3.5-3.4 1-5 .1-8.3-1.4l-8-6-3-2.2-2-1.8v-2c5 1.5 8.2 4.6 12 8 3-1.4 3-1.4 5.4-3.9.8-2 .8-2 0-4-1.4-2.3-1.4-2.3-4-4.7-2.4-2.4-2.4-2.4-2.4-5.4"/><path fill="#c4ea37" d="m629 809 3.5.6c11.2 2 21.8 5.6 32.5 9.4l-1 4-12-2-2.8-.5-2.6-.4-2.2-.4c-2.4-.7-2.4-.7-5.2-2.1a48 48 0 00-11.5-3.6q-9-1.9-17.7-5v-1c6.4-1.7 12.5 0 19 1"/><path fill="#dbf6a6" d="M753 874q11-.4 22 1.3 36 4.8 72 5.7v1h-30l-1 2 9 2v1c-7.5.3-14.7-1-22-2.2l-3.8-.7c-10.2-1.8-10.2-1.8-13.6-4.2-5.4-3.5-12.4-3.1-18.5-3.6L753 875z"/><path fill="#1b700c" d="M532 443v2q-2.4 2.1-5 4a133 133 0 00-39 54h-2a39 39 0 014.6-13.7l1.1-2.1a132 132 0 0129.2-39c3.6-3.2 6.1-5.2 11.1-5.2"/><path fill="#f7faf3" d="m497 399.6 3.2.1 3.3.2 2.5.1a18 18 0 011 11c-2 3-2 3-5 5-3 .6-4.9.4-8 0-2.2-1.6-2.9-2.5-3.4-5.1v-4.6c.7-4.2 2-6.1 6.3-6.7"/><path fill="#7cc934" d="M205 922v5.3l.1 2.9c-.2 4.6-.2 4.6-1.1 6.8-1.9 1-1.9 1-4.2 1.8l-2.3.7c-2.5.5-2.5.5-8.5.5v-14l8.3-2.2c6.3-1.8 6.3-1.8 7.7-1.8"/><path fill="#daf579" d="M781.2 679.1c2.7 1.3 4 3.5 5.8 5.9l2 1c-.5 4.2-2.6 5.8-5.8 8.3l-2.7 2.2c-2.5 1.5-2.5 1.5-4.6 1.4a17 17 0 01-6.9-6.9c.1-3 1-4 3-6.2l2.3-2.1 2.4-2.2c2.3-1.5 2.3-1.5 4.5-1.4"/><path fill="#98d128" d="m462 756 2.5.9 3.3 1.1 3.2 1.1c3.3 1 5.8 1.5 9-.1v5l1.9.8c2.5 1.4 3 2.6 4.1 5.2-1 2-1 2-3 4-5.8.6-10.5-.4-16-2v2l7 1v1a106 106 0 01-16-3q-6.6-1.7-13.4-3.1l-3.6-.9-1-2c6.2-3 17.5.5 24 2l1 1 6.6 1 3.6.6 2.8.4 2-5-3.4-1.7L462 758z"/><path fill="#daf2a9" d="m228 685 1 2c2.4 1.3 2.4 1.3 5 2l3-1c2.2 1.4 2.2 1.4 4 3h-2a18 18 0 009.7 6c3 1 3 1 5.3 2l1 3-1.5-.4q-5.2-1.1-10.5-1.6l-1 1c-6.2-.2-10.8-2-16.3-4.7a75 75 0 00-7.3-3C215 692 215 692 214 690l12 3z"/><path fill="#398b1d" d="m347 651-1.9 1.8c-6.1 5.8-6.1 5.8-10.1 13.2l-1.5-1.2c-3.3-1-5 0-8 1.5l-2.1 1c-7.2 3.7-7.2 3.7-9.4 3.7l-1-3 2-2-1-2 10-4.7 2.7-1.4 10.9-5.2 2.4-1 2.1-1.1c1.9-.6 1.9-.6 4.9.4"/><path fill="#c1e530" d="M640 772c-2 2.2-3 3-6 4l15 1-1 2-7 1v2l-3.4.4-6.6.8q-4.7.5-9 1.8l-5.2-.4-2.7-.3-2.1-.3v-1l2.2-.1 2.7-.3 2.8-.2 2.3-.4 1-2h-9c2.6-1.7 4-2.4 7-3l-2-2 6.6-1.5 3.7-.8q5.3-1 10.7-.7"/><path fill="#52ab19" d="M419 842c-2.7 3.3-6.2 4.6-10 6.2l-2 .9-20 8q-6.6 2.6-12.9 6c-3.9 2-5.8 1.7-10.1.9q-3 1.4-6 3.2c-2.5 1-3.6.7-6-.2q7.8-4.5 16.3-7c7.1-2 13.9-5 20.7-8l15.7-6.7 2-.8 5.3-2.5c3-1 4.1-1.2 7 0"/><path fill="#b2e457" d="M275 987c3.5.8 6 2 9 4-.5 4.5-2.2 6.9-5 10.3l-2.3 2.7-1.7 2a41 41 0 01-9-6c.6-4 2.4-5.9 5-8.7l2.3-2.5z"/><path fill="#cdf18d" d="M357 558q3 3.9 5.2 8.4l1.1 2.5 2.4 5.2 1.1 2.5 1 2.3c1.1 2.1 1.1 2.1 2.7 4 1.8 2.5 2.6 4.8 3.6 7.6q3.4 8.8 7.6 17.2l1.3 2.6 9.1 18.3 1.2 2.4 1.1 2.3 1 2c.6 1.7.6 1.7-.4 4.7l-10-19.9-26.9-53.2c-1.3-2.6-2.2-4.4-1.8-7.3z"/><path fill="#59b019" d="M451 806v2c-3.5 2-7 2.8-11 3.6l-3.7.8c-3.3.6-3.3.6-7.3.6v2h5a32 32 0 01-18 4v-3c4.2-1.6 7.5-2.2 12-2v-2l-15 2-1-2a106 106 0 0115.8-3.5l6.4-1A73 73 0 01451 806"/><path fill="#ddf77d" d="M785 745c-3.6 4.1-7.9 6.3-12.6 8.9l-7.3 4c-5.4 3-10.8 6-15.7 9.9-3.6 2.6-7 3.4-11.4 4.2v-4l2.2-1c13-6.3 30.7-22.6 44.8-22"/><path fill="#c3ec73" d="M256 653c5.7 1.3 9.3 3.1 13.7 7q5.6 4.5 11.5 8.6 3.6 2.4 6.8 5.4l-5 5-.8-1.8a13 13 0 00-4.9-5l-2.2-1.6-2.4-1.5c-15-10.3-15-10.3-16.7-16.1"/><path fill="#ace253" d="M188 657c5 1 6.8 2 10.8 5l3 2.3 2.2 1.7a57 57 0 01-4 7l-4.8-1-2.7-.5c-2.5-.5-2.5-.5-5.5-1.5z"/><path fill="#c9ee3c" d="M473 803c-2.3 4.7-2.3 4.7-5.2 6.1q-5 1.4-10 2c-4.3.1-4.3.1-7.8 1.9a67 67 0 01-21 2v-2q8.9-2.7 18-4l11.3-3.3 2.3-.7 4.5-1.4c5.7-1.7 5.7-1.7 7.9-.6"/><path fill="#227d0e" d="M732 605h9l-1 2-.2 4.5-.1 2.7-.1 5.6-.1 2.7v2.5c-.5 2-.5 2-3.5 4h-4z"/><path fill="#caef6a" d="m579 598 10 3c0 5.3-1.8 8.3-4 13l-11-1c.6-5.6 2.6-10 5-15"/><path fill="#c7ee85" d="M292 422a27 27 0 016.2 8.8l5.8 11.4q6.4 12.3 12.4 24.9l1.4 2.8 1.2 2.7 1.1 2.3q1.2 3 1.9 6.1h-4l-5.2-11.2-1.5-3.2q-3.6-7.8-6.8-15.7a344 344 0 00-11.7-25c-.8-1.9-.8-1.9-.8-3.9"/><path fill="#eef966" d="m596 798 .4 2 .6 2 2 1-3 3 6 4-2 .8c-2.2 1-2.2 1-2.7 3.3l-.3 1.9-4-1v7l-1.6.2a13 13 0 00-5.5 3.4C583 828 583 828 581 828v6h-1c-1-8.5-1-8.5 1.3-11.9l3.8-3.3A44 44 0 00596 798"/><path fill="#c5ec7d" d="m188 683 2 1-1.5 1.8c-6.3 8.6-7 16.7-7.5 27.2a1051 1051 0 0044 23l-2 1-7-3.2-2-.8c-2.2.8-2.2.8-3 3-2.3 2.2-3.5 3-6.7 3.2l-2.3-.2-1-2 2.3.3 2.7-.3c1.8-2.4 1.8-2.4 3-5l1-1-1.6-.7A221 221 0 01178 714l.8-8.7.2-2.5c.5-4.7 1.2-7.9 4-11.8l1.4-2.2 1.3-2.1 1.3-2.1z"/><path fill="#6fbd1e" d="M472 849c-5.6 5.9-12.4 10-19.3 14.3Q443 869.6 434 877l-1-2-2-1 1.8-1.3a1303 1303 0 0028-21c3.7-2.8 6.7-2.8 11.2-2.7"/><path fill="#6abb1d" d="m593 358 24.7-.1h2c3.1 0 5.4.1 8.3 1.1l1 4-33 1 3-4-6-1z"/><path fill="#cff08f" d="M123 549c4 1.7 7.2 4.5 10.6 7.3q10.1 8 20.7 15.7 7.5 5.5 14.5 11.3 5.4 4.1 11.2 7.7l-3 2c-3.9-1.7-7-4.2-10.4-6.9l-1.8-1.4q-7.5-6-14.5-12.2-6.3-5.4-12.7-10.3C127 553.9 127 553.9 123 550z"/><path fill="#2a8f0b" d="M484 505h2q-.5 4.8-1.7 9.4c-4.9 18.2-4.5 38-5.3 56.6l-4-1h3l-.2-3-1-16.5c-.7-14.8.4-32 7.2-45.5"/><path fill="#b0e459" d="M346 600h9l4.7 8.4c1.3 2.6 1.3 2.6 1.3 4.6a20 20 0 01-10 2l-2.5-4.7-1.4-2.6a15 15 0 01-1.1-7.7"/><path fill="#7eca1d" d="m595 840 1.6 1.2c4.3 3.3 4.3 3.3 9 6.2 3 2 5.2 4.6 7.6 7.4q3.7 4.4 7.5 8.4c1.3 1.8 1.3 1.8 1.3 4.8-3.1-.3-4-1-6.3-3.4l-2.4-3-2.4-3C609 856 609 856 608 853c-2-1.2-2-1.2-4-2v-2l-6 3c-4.8-5.5-4.8-5.5-5-9z"/><path fill="#d9f441" d="m624 757-3 1.5-4 1.9-2 1c-3.6 1.6-3.6 1.6-6 4.6 7.8-2 15.3-4 22.6-7.1A64 64 0 01644 756a15 15 0 01-6.4 3.8l-2.8 1-2.8 1.1-2.8 1c-17.1 6.6-17.1 6.6-24.3 6.3H602l-2.1-.2a27 27 0 0112-9.4l2.2-1 2-1.1 2-1c2.2-.6 3.6-.2 5.8.5"/><path fill="#bee735" d="M590.4 846.6c2.6.4 2.6.4 4.4 2.5a18 18 0 011.2 8.9l-5-2 1.4 3.4A45 45 0 01595 873l-1-3-3 1v-2l-4 1c-.2-8.1-.2-8.1.6-12.1a30 30 0 00-.6-9.9c1-1 1-1 3.4-1.4"/><path fill="#a1d82d" d="m493 832-2 8 2 1-5 5h-2l2-9-2.5 2.1-3.3 2.8-1.7 1.4c-4.7 4-7.2 6-13.5 5.7 1.5-4.4 5-6.6 8.5-9.2l1.8-1.4c4.4-3.4 4.4-3.4 6.7-3.4v2l1.5-1 1.9-1.5 1.9-1.4c1.7-1.1 1.7-1.1 3.7-1.1"/><path fill="#53a31d" d="M775 554h1v63l3 1h-4v7h-19v-1h11v-7h8z"/><path fill="#d4ef8d" d="M737 814h1l1 70.6v2.2c.1 5 .1 5-1 7.2l3 1-2 1 1 3-.1 4.5-.2 2.6-.1 2.7c-.5 8.1-.5 8.1-.6 16.2l-2 1z"/><path fill="#cbee98" d="m190 570 4 1v2h2l2-3 2 2q5.2 5.2 10.7 10.2l4 3.7 1.8 1.7q1.8 1.6 3.5 3.4c-6.5.4-6.5.4-9-1.3-1-1.7-1-1.7-1-4.7h-2v-2h-3c-5-.6-7.8-4.4-11-8-1.8-2-1.8-2-4-3z"/><path fill="#e0f792" d="M274 909v2l-24.2 12.4-2 1A34 34 0 01234 928l-1-2c17-8.2 17-8.2 23.8-10.2q6-2.4 11.6-5.6c2.6-1.2 2.6-1.2 5.6-1.2"/><path fill="#a3d82e" d="m501 845 3 4a57 57 0 01-12 18l-2-1 1.5-2.3 2-3 2-2.9c1.8-2.9 1.8-2.9 1.5-6.8q-3 3.6-5.6 7.3L490 860h-2l-2 4-2-2 3.8-5.2 2-3q2.8-3.7 6.2-6.8h2z"/><path fill="#e4f8b7" d="m771 931 7.4 3c2.6 1 2.6 1 4.7 2.1 2 1.1 2 1.1 4.9.9v-4c4.8.6 8.6 2 13 4-3 1-5 1-8 0l-1 3-6-1v3h2v2c-3 0-3 0-4.7-1.5L782 941l-1 2-2.1-1.8a46 46 0 00-8.9-5.2l2-1 2 1-1-2c-2-.7-2-.7-4-1z"/><path fill="#ceec47" d="m493 760 6 2-.6 3q-2.7 12.4-3.4 25h-1l-1-9-12-4v-1l3.3-.7c4.2-1.5 4.7-2.5 6.7-6.3h3c.7-2.9.7-2.9 1-6z"/><path fill="#f8fce5" d="M750 890c6.6-.1 6.6-.1 10 1 1.1 6.6 1.1 6.6 0 10-2.7 1-4.4 1.2-7.1.2q-3-1.5-5.9-3.2v-2h2z"/><path fill="#dcf44c" d="M603 742h3l-1 4h4c-.4 2.7-.7 3.8-2.9 5.5l-2.4 1.4c-6.8 4.3-6.8 4.3-10.7 11.1l-3-7 3-1c1.7-3 1.7-3 3-6h2l1-4h2z"/><path fill="#9fdc4c" d="M336 608h3l5 12-3 1-1 3-5-2v-5h-2c-2-3-2-3-1.7-5.6 1-3.5 1-3.4 4.8-3.5"/><path fill="#caee84" d="M340 521c2 2 2.8 3.5 4 6.1l1 2.5 3.7 8.2 1.2 2.7 3 6.6 1.7 3.4 1.4 3c1 2.5 1 2.5 1 6.5h-2l-14.4-29.4c-2.6-5.4-2.6-5.4-2.6-7.6h2z"/><path fill="#cbec4a" d="m509 833 2 1v4.3l.1 2.3q-.2 3.3-1.1 6.4l-2.4.4c-2.6.5-2.6.5-4.6 1.6l-2-3-5 3c.6-3.5 2-6 4-9l2-1 2-3h3z"/><path fill="#d5f298" d="m290 467 4 8c-5.2 4.8-5.2 4.8-8.7 5.6-2.3-.6-2.3-.6-4.2-2.3-1.1-2.3-1.1-2.3-1.2-4.8A11 11 0 01290 467"/><path fill="#b2dd2b" d="m328 864 3 1v6h-3l-.2 1.9q-.5 3.6-1.8 7.1c-3 2.1-3 2.1-6 3l-2-1 1-1-.3-3.6c0-4.6 1.6-6.7 4.7-10 1.6-1.4 1.6-1.4 4.6-3.4"/><path fill="#fdfef2" d="M342 872c1 3.7 1 5.2 0 9h-14v-3l3-2 2-4c3-1.5 5.7-.5 9 0"/><path fill="#78cb1e" d="m644 813 21 6-1 4-12-2-2.8-.5c-4.9-.9-8.9-2-13.2-4.5 2.6-1 3.6-1.1 6.3 0l1.7 1z"/><path fill="#94cf27" d="M460 794h5l2.7-.1c2.3.1 2.3.1 3.3 1.1l10.2.8 2.8.2v5l-2.5.4A346 346 0 00461 805l1-2q4-.7 8-1l-1-5-9-1z"/><path fill="#a0d124" d="m366 865 2 1c-5.5 3.8-5.5 3.8-8.7 5-2.5.8-2.5.8-3.5 3.4l-.8 2.6-2 3-.8 2.4a15 15 0 01-6.2 6.6h-2v-6h3l.6-1.9.8-2.4.7-2.4c.9-2.3.9-2.3 2.9-5.3 3-1.4 3-1.4 6.6-2.6 4-1.2 4-1.2 7.4-3.4"/><path fill="#78c722" d="m474 812-1 1h6v2c-4.2 3.6-9 5.5-14 7.7l-3.2 1.4c-2.8.9-2.8.9-5.8-.1 3-1.9 5.5-3.4 9-4l-3-4c6.7-5.6 6.7-5.6 12-4"/><path fill="#f4fbbb" d="M825 757v4c-7 1.7-13.7 2.2-21 2v-3h-5a21 21 0 0111-2.6c13.9-.7 13.9-.7 15-.4"/><path fill="#bbe43c" d="m497 820 1 2-1 3 2 1c-.6 3-1.6 5.4-3 8l5-4 2 1-4.3 4.5-2.4 2.5c-2.3 2-2.3 2-5.3 2 .9-5.7.9-5.7 2-8l-1.5 1-1.9 1.5-1.9 1.4C486 837 486 837 484 837v-2c1.6-1.6 1.6-1.6 3.8-3.4 4.1-3.4 7-6.7 9.2-11.6"/><path fill="#d7f33f" d="M611 722c-4 8.5-11.9 15.1-18.2 21.8l-1.8 2-1.6 1.6c-1.6 1.8-1.6 1.8-3.4 4.6l-3-4 2.2-1.1c3.3-2.2 5.6-4.9 8-8l3-3.4 1.4-1.8q3-3.7 6.4-7.5l2.1-2.5c1.9-1.7 1.9-1.7 4.9-1.7"/><path fill="#e2f653" d="M767 448c3.2 4.1 5.4 8.5 7.7 13.1l1.2 2.5A30 30 0 01779 481c-2.4-3.7-4-6.5-4-11h-2q-1.9-6-3-12l-3-1v-2h-2z"/><path fill="#def7ab" d="M205 825q10.6-.2 21.1 1.8 18.5 3 36.9 5.2l-1 2-25-3-2 3q-3.8.3-7.6.2h-2.2l-5.2-.2v-1h13v-3h-2.4c-2.6 0-2.6 0-3.6-1l-4.9-.4A149 149 0 01205 826z"/><path fill="#eef865" d="M683 377a31 31 0 0111.3 3.5l3 1.6 3 1.6 3 1.6q8.2 4.3 16 9.5c1.7 1.3 1.7 1.3 3.7 2.2v2l1.6.7q4.8 2.8 9.4 6.3l-1 2-6 1 1-4a193 193 0 00-45-27z"/><path fill="#daf15a" d="M728 756h2v23h-1v-9c-5.2.4-5.2.4-10 2-.7 2.5-.7 2.5-1 5h-1v-7h-5v-2l2.2-.4 2.7-.5 2.8-.5 2.3-.6 1-2h5z"/><path fill="#dbf2b5" d="m202 582 6 1v2h2c1.8 2.6 3 5 4 8h4v2h2l1 4h3v2h2c3.7 3.3 6.4 6.8 9 11-3 0-3 0-4.8-1.5l-2-2-2.2-2.2-2.2-2.4q-6.8-7.2-14.3-13.6c-5.8-5-5.8-5-7.5-8.3"/><path fill="#85d11f" d="m759 630-4 2-3-1 .6 1.8c.5 2.7-.2 3.8-1.6 6.2-4.8.2-8.5-.2-13-2v-3a25 25 0 0110-3.7l3.7-.8c3-.4 4.5-.5 7.3.5"/><path fill="#99d841" d="M259 473c3 1.4 5.4 3 8 5-.2 1.8-.2 1.8-1 4a20 20 0 01-11 4c.5-5 1.6-8.6 4-13"/><path fill="#eef7b2" d="M726 416c4.4.5 6 1.7 8.8 5l1.8 2.3 1.4 1.7-2 1v2h4l1 6 3 1v2h2v2c-2.8-.4-3.8-.7-5.6-3l-1.4-2-3-1-1.2-2.6a28 28 0 00-7.4-8.7C726 420 726 420 726 416"/><path fill="#cbef85" d="m240 638 1.6 1.2 2.2 1.7 2 1.6q3 2 6.2 3.5l4 4 5 3 1 2-6-2 2 4c-2.4-1-4-2-5.8-3.8a64 64 0 00-11-8.6L239 643l2-1z"/><path fill="#78c623" d="m484 848 1 3 3 1-1.8 1.7q-6.9 6.8-13.2 14.3l-3-1 1.6-1.8c4.3-4.7 4.3-4.7 5.3-10.8l-.9-2.4c4.6-4 4.6-4 8-4"/><path fill="#def34d" d="M606 812c-.6 1.8-.6 1.8-2 4-3.5 1.7-3.5 1.7-7 3l-2 1c1.1 3.3 2 4 4.6 6.2l1.9 1.6 1.5 1.2-1 2c-8.6-5.7-8.6-5.7-10.1-10.8.1-3.2.1-3.2 1.1-5.2l4 1-1-3c3.5-3.5 5.9-3.5 10-1"/><path fill="#edf84b" d="M644 689c5.8-.2 10.5.1 16 2v2l-11 3-.4 5c-.2 2.7-.2 2.7-.6 5l-2 1-.2-2.3-.2-3-.3-2.9q-.4-3.5-1.3-6.8z"/><path fill="#c6eb82" d="M177 592c4 .5 6.2 1.6 9.4 4l2.3 2 2.5 2 2.5 1.9c5.9 4.7 5.9 4.7 8.3 7.1-4.4 1.3-4.4 1.3-7 0l-1.8-1.6-2.1-1.8-2.2-1.9-4.2-3.5-1.9-1.7c-1.8-1.6-1.8-1.6-4-3L177 594z"/><path fill="#9cd826" d="m501 734 5 2v3l2 1c0 4 0 4-1.6 5.9l-2.1 1.8-2.2 1.8c-2 1.5-3.6 2-6.1 2.5l-.2 1.9c-.8 2.1-.8 2.1-2.9 3.4l-1.9.7-2-2 2.9-3 1.6-1.7c1.5-1.3 1.5-1.3 3.5-1.3l.7-1.7c1.6-2.9 3.7-4.4 6.3-6.3l-1-2.3z"/><path fill="#d5ee43" d="m776 618 6.4 1 3.7.5c2.9.5 2.9.5 3.9 1.5v6l-14-2z"/><path fill="#76c61f" d="m474 828 2 1-1 1 3 2c-10.2 6-10.2 6-15 6l-5.3 3.2c-1.7.8-1.7.8-4.7-.2a71 71 0 0114-9l3.8-2.2z"/><path fill="#d1f385" d="M682.6 1085.4c2.4.6 2.4.6 4.3 2.3 1.1 2.3 1.1 2.3 1 4.4-.9 1.9-.9 1.9-2.6 3.2-3 .9-4.5.7-7.3-.3-1.3-2-1.3-2-2-4 3.3-4.8 3.3-4.8 6.6-5.6"/><path fill="#e2f659" d="m498 819 3 1-1 3h3l-1 5 7 1c-.2 3.4-.2 3.4-1 7-2 1.4-2 1.4-4 2l1-6c-1.8-.8-1.8-.8-4-1-1.6 1.4-1.6 1.4-3 3h-2c.6-3 1.6-5.4 3-8l-3-1z"/><path fill="#7bc524" d="M611 869a94 94 0 0112.1 14 16 16 0 012.9 8c-8.3-3.4-13.2-13.4-17-21z"/><path fill="#8bd021" d="m620 835 1.6 1c4.4 2.4 4.4 2.4 9.3 2.7l2.1-.7 2 1c.4 2 .4 2 .6 4.6l.3 2.5.1 1.9a27 27 0 01-16-10z"/><path fill="#58b817" d="M622 865a67 67 0 0114 14v4c-3.3-.6-4.8-1.5-7-4l-1.6-1.7-1.6-1.9-1.7-1.8-4.1-4.6 2-1z"/><path fill="#f9fa80" d="m684 683-1.7.6a22 22 0 00-6 5.8c-3 3.8-6 6.5-10.3 8.6l-2 2.1c-2 1.9-2 1.9-5 1.9v2l-4-1 2-1.6c6.3-5 6.3-5 12.2-10.4l1.6-1.6 3-3c3.4-3.2 5.5-4 10.2-3.4"/><path fill="#e9faa2" d="m363 442 1 10-7 1c-3-4.3-3-4.3-3-7.2 1-1.8 1-1.8 3.4-3 2.6-.8 2.6-.8 5.6-.8"/><path fill="#87c51d" d="M384 856v2c-5 3.1-10.2 5.8-16 7l-2-.6c-2.7-.6-3.7.2-6 1.6-3.5 2-3.5 2-6.2 1.6l-1.8-.6a106 106 0 0123-9l2.3-.7c4.4-1.3 4.4-1.3 6.7-1.3"/><path fill="#c6ee79" d="M249 778c3.4-.2 3.4-.2 7 0 2 3 2 3 1.6 5.2l-.6 1.8-3.4.6c-3.9 1-3.9 1-5 4.5l-.6 2.9-3-2h3v-5l-3-1h4z"/><path fill="#cfee40" d="M606 812c5.9 1.7 11.3 4.4 16.8 7l3 1.4 2.7 1.3 2.6 1.2c1.9 1.1 1.9 1.1 2.9 3.1-4.7-.6-8.4-1.9-12.6-4l-3.4-1.5-5.2-2.7c-2.8-1.3-5.7-1.4-8.8-1.8z"/><path fill="#ddf5a7" d="M375 595q2.2 3.3 4 6.9l1.1 2.3 12 24q.4 1.4 1.2 2.6l1.1 2.3 1 2c.6 1.9.6 1.9-.4 4.9l-20-40.5-1-2.5z"/><path fill="#77c433" d="M428 534h1q1.1 15.5 1 31h5l1-2v7l-10 1 2-1z"/><path fill="#c0e42e" d="M327 885c2.8 1.3 2.8 1.3 5 3 .3 2.7.3 2.7 0 5h-6v-2h-3l-1-3-2.2 1c-3 1-4 .9-6.8 0l4.8-2.6 2.6-1.4c2.9-1.1 3.8-1.1 6.6 0"/><path fill="#d3eb3a" d="m621.9 778 2.8.2 3 .2 3 .1 7.3.5c-1 2-1 2-3 3a46 46 0 01-23 2v-1l2.2-.1 2.7-.3 2.8-.2 2.3-.4 1-2h-9c3.3-2.2 4-2.2 7.9-2"/><path fill="#cfe0c1" d="m491 575-3 3-5.6-2.2c-7.2-2.3-14.8-2.1-22.3-2.4h-3.6l-8.5-.4v-1l11.3-.6 3.2-.1A61 61 0 01491 575"/><path fill="#d5ee6b" d="M448 808h3l-1 5c-7 1.7-13.7 2.2-21 2v-2c10.6-3 10.6-3 15.1-3.6 2.8 0 2.8 0 3.9-1.4"/><path fill="#c8ec36" d="m597 719 1 3c-2.3 3.2-2.3 3.2-5 6h-2c0-2 0-2 2.4-4.5l2.6-2.5zm-8 10c.8 1.6.8 1.6 1 4-2.3 3-2.3 3-5 6-2.3 3.4-2.2 5-2 9l-8-6c2-1 2-1 5-1 2.1-2.4 2.1-2.4 4.1-5.4l2.2-3.1 1.7-2.5z"/><path fill="#f4fb75" d="M588 815c3.9 4.8 3.9 4.8 5 7l-1.6.2a13 13 0 00-5.5 3.4C583 828 583 828 581 828v6h-1c-1-8.5-1-8.5 1.5-12.2l3.9-3.4c1.7-1.3 1.7-1.3 2.6-3.4"/><path fill="#e8f8cb" d="M165 789a327 327 0 0134 6l1-2h7v1h-6l-1 9h-1l-1-5-14.8-3.8A96 96 0 00166 791z"/><path fill="#d9f148" d="M600 804a33 33 0 0115 2v2l-3.4.9-3.6 1.1-1 2c-3.4-1-6-2-9-4z"/><path fill="#fdfdbb" d="M743 416c3.5 1.9 6 3.4 8 7q1.2 7 1 14c-2-.8-2-.8-4-2l-1-3h2l-2-8h-2z"/><path fill="#fdfdbf" d="M731 407a26 26 0 0112 7l-1 2-2-2q-3.6-1.2-7.1-2.1l-2-.6-4.9-1.3 1.5 2.3c1.5 2.7 1.5 2.7 1.5 5.7l-3-2-1 2-3-3 1-2 2 1-2-5 3.4-.4c3.4-.2 3.4-.2 4.6-1.6"/><path fill="#d1f03e" d="m318 884-10 6 1 2-8 3v-3l-2.3 1.3-3 1.8-2.9 1.7c-2.8 1.2-2.8 1.2-5.2.9l-1.6-.7 6.4-3.4 1.8-1 6.8-3.6v2c3-1 4.8-1.8 7-4h3l1-3c3-1 3-1 6 0"/><path fill="#71bf22" d="M464 769v1l-6 1 2 2-12.6-2.5-2.5-.5-2.2-.4-1.7-.6-1-2c6.3-3.2 17.4.7 24 2"/><path fill="#cbf384" d="M731 1054c1.9 1.9 1.9 1.9 3 4l-1 3c-5.7 1.1-5.7 1.1-8 0v-2h-2l1-5c2.8-1.4 4.1-1 7 0"/><path fill="#daef35" d="M369 863c-3.1 3.6-6 5-10.5 6.6A78 78 0 00348 874v-2h-5v-2l3.9-.7c7.5-1.7 14.4-6.5 22.1-6.3"/><path fill="#c5ef6e" d="M753 874c9-.5 17.6.6 26.5 1.9q10.7 1.5 21.5 2.1v1h-11v2l4 1c-6.4-.6-6.4-.6-9.3-2.5a21 21 0 00-9.5-2.4l-4-.4L753 875z"/><path fill="#a2d825" d="m595 840 12 9-1 2-2.3-.6c-3-.7-3-.7-5.7 1.6-4.8-5.5-4.8-5.5-5-9z"/><path fill="#b7e536" d="M506 740c2.3-.2 2.3-.2 5 0 1.7 2 1.7 2 3 4-4.8 4.6-8.4 7.8-15 9 0-3 0-3 1.8-4.8l2.2-1.9 2.3-1.9 1.7-1.4z"/><path fill="#f3fbca" d="m311 618 2 2.1q4.9 4.7 10 8.9l-1 4-4-1v-2l-1.9-.2c-2.1-.8-2.1-.8-3.2-3.2l-.9-2.6c-1.5-1.8-1.5-1.8-3-3h3z"/><path fill="#fefd9a" d="M342 877h1c.3 2.3.3 2.3 0 5-2 2-2 2-4.5 3.8l-2.5 1.8-2 1.4c-2-2-2-2-2.1-4.6l.1-2.4-9 1 4-4 1 2h14z"/><path fill="#8bcc26" d="m474 776 6 1c.2 3.5.2 6.1-2 9-3.1.8-3.1.8-6 1-.2-7.6-.2-7.6 2-11"/><path fill="#4fa912" d="M767 618h8v7h-19v-1h11z"/><path fill="#c8eb3d" d="M779 474c3 3 3.3 6.5 4.2 10.4l.6 2.4.5 2.3.5 2c.2 1.9.2 1.9-.8 4.9v9c-2.3-3.5-2.5-5.8-3-10-.6-4.6-.6-4.6-1.6-9.1q-.6-3.5-.5-7.1V476z"/><path fill="#96d41c" d="M652 771v4a31 31 0 01-12.9 2.1h-3.5l-2.6-.1c1-2 1-2 3.8-3l3.5-1.1 3.4-1.1c3-.7 5.3-1 8.3-.8"/><path fill="#e2f7ab" d="M780 943h1c1.1 5.8 1.1 5.8 0 8l2.3.6q7.7 3.2 14.7 7.4l-2 5-.2-1.8c-1.1-3-2.6-3.6-5.5-5l-2.9-1.5-3-1.5-3-1.5-7.4-3.7z"/><path fill="#aae268" d="M272 730h2v44c-2-2-2-2-2-5v-3l-1-2 .7-4.6c.6-5.4.4-11 .4-16.3v-3.8z"/><path fill="#f8fc88" d="M503 812c9.8 9.6 9.8 9.6 10.3 13.9l-.3 2.1-1-2-5 1v-7h-4z"/><path fill="#88ce22" d="M483 734h2v3l1.7.1c3.6 1.4 5.2 3.7 7.3 6.9.2 3.7-1.3 5.6-3.6 8.3L488 755l-3-1 1.1-1.4 2.9-3.7c1.2-1.8 1.2-1.8.8-4-1-2.2-2-3.3-3.9-5-1.6-1.4-1.6-1.4-2.9-2.9z"/><path fill="#d7f4a6" d="m186 949 2 1v2l-10.2 4.3-2.9 1.2-2.8 1.2-2.6 1.1c-2.6 1.2-2.6 1.2-5.1 2.9L162 964l-3-1z"/><path fill="#cfee6d" d="M785 745c-3 3.3-6.2 5.5-10 7.8l-3.2 2c-2.8 1.2-2.8 1.2-5.8.2 5.2-5.7 10.9-11 19-10"/><path fill="#e6f9a4" d="M522 587h8v7c-1 1-1 1-4 1.1-3-.1-3-.1-4-1.1z"/><path fill="#c7ef8b" d="M205 578c5 3 9 6.7 13 11l2 2c-6.5.4-6.5.4-9-1.3-1-1.7-1-1.7-1-4.7h-2v-2l-4-1z"/><path fill="#c3e777" d="m206 767-.4 4.4-.3 2.5c-.3 2.1-.3 2.1-1.3 3.1h-5c-.1-6.6-.1-6.6 1-10 2.5-1.2 3.4-.8 6 0"/><path fill="#cff081" d="M239 691c6 .4 9.4 1.2 14 5v2l6-1 1 2c-6.2 2-11.4-.4-17-3-2.3-1.5-2.3-1.5-4-3z"/><path fill="#d7ef4e" d="M490 802h3l1 7h3l-1 3v-2l-2.7 1.5a14 14 0 01-8.3 1.5l2-2v-3l2-2z"/><path fill="#dff33d" d="m644 707 2 1v1l8-1-1 3-3.3.3c-3.9.7-4.2 1-6.7 3.7-2.7.2-2.7.2-5 0v-4c3-2.2 3-2.2 6-4"/><path fill="#d5f499" d="M237.8 784h7.2v1h-7l1 5-18-4a63 63 0 0116.8-2"/><path fill="#dff25e" d="M495 769h2l-2 21h-1l-1-9-12-4v-1h5.3l3.1.1c2.6 0 2.6 0 4.6-1.1.7-3 .7-3 1-6"/><path fill="#9bd225" d="m714 767-2 1v2h5v1l-2 .2-2.4.2-2.5.3c-2 0-2 0-3.1 1.3h-7l4-2-10-1v-1l6.6-1 3.8-.6q4.7-.6 9.6-.4"/><path fill="#d7f042" d="M638 713v2l2 1-2.8 2.3a43 43 0 00-4.8 4.5C631 724 631 724 627 724c.5-3.8 2-5.3 5-7.7l2-2c2-1.3 2-1.3 4-1.3"/><path fill="#8ad226" d="m478 838 2 1-3 3 4 1c-6.9 5.9-6.9 5.9-11.5 6.4l-2.5-.4c1.5-3.7 3.5-5.4 6.6-7.7l2.5-2z"/><path fill="#c0df2e" d="M707 770c-7.3 4.9-19.4 4.4-28 4 6-6 20-4.2 28-4"/><path fill="#dcf5a3" d="m890 682 2 1a367 367 0 01-27 16l-2-2 2-1 8.7-4.8 3-1.7 3-1.6 2.7-1.5 5.3-3.1z"/><path fill="#3a9914" d="M749 575h1v22c-3.3-4.4-3.4-6.9-3.3-12.1v-2.2c0-5.4 0-5.4 2.3-7.7"/><path fill="#e0f7aa" d="M232 803c7.2.4 14 1 21 3v1l-4.2-.4-2.4-.3a48 48 0 01-6.4-1.3l.6 2.9c.4 3.1.4 3.1-.6 5.1h-5l4-1v-6l-8 1z"/><path fill="#d0f08d" d="M240 694c11.2 3 11.2 3 15 6v2l-1.5-.4q-5.2-1.1-10.5-1.6l-1 1-8-1c3-1 3.9-1 7 0z"/><path fill="#d3f1a6" d="M123 549a34 34 0 019.3 6.1l2 1.6 6 4.9q4.7 3.8 9.7 7.4l-2 2-5.8-5-1.8-1.4q-7-6-14.4-11.8c-2-1.8-2-1.8-3-3.8"/><path fill="#dcf4a1" d="m773 978 6 3-3 1-1.4 5c-1 3.3-2.8 6-4.6 9l-3-1v-2l2-1.2c2.3-1.7 2.3-1.7 2.8-5.3s.4-3.5-.8-6.5z"/><path fill="#eef99c" d="M251 921c-2.3 2.7-4.6 4-7.9 5.3l-2.5 1c-3 .8-4.7.5-7.6-.3a23 23 0 0118-6"/><path fill="#acd84d" d="M433 875c-1.1 3-1.7 3.8-4.6 5.3l-2.4.7v6l-3 1c-1-3.1-1-3.1-1-7 3.1-4.2 5.8-6 11-6"/><path fill="#b1df2c" d="M644 812v1c-6.2.4-11.9-.7-17.9-2.1l-5.1-.9-2 2-9-3v-1c10.6-2.7 23.5 1.8 34 4"/><path fill="#ebf9a2" d="m633 560 7 1-1 7-3 1c-2.2-1.4-2.2-1.4-4-3z"/><path fill="#a8df2f" d="m487.3 822.9 1.7 1.1-5 4-2 1.8c-2.7 1.6-4.8 1.4-8 1.2 1.4-3.6 3-5 6.4-6.9l2.3-1.3c2.3-.8 2.3-.8 4.6 0"/><path fill="#76c628" d="M434 815a32 32 0 01-18 4v-3a28 28 0 0118-1"/><path fill="#8fc423" d="M343 842h1l.1 3.5.3 4.4v2.3l.6 5.8 2 1-2 2-1 5h2v2h6l-2 2h-7z"/><path fill="#66b41d" d="M399 850c-3 3.4-5.5 4.8-9.7 6.3l-3 1-2.3.7v-2l-4 1c1.6-3.1 4-3.4 7.3-4.6l3.4-1.4c3-1 5.2-1.2 8.3-1"/><path fill="#f9fde9" d="M838 774v3c-6.4 4-6.4 4-9.4 3.8l-1.6-.8v-4c3.9-1.2 7-2 11-2"/><path fill="#c5ed62" d="m225 871 1 5-7 3c-2-2-2-2-2.1-4.6l.1-2.4c2.9-.8 4.9-1 8-1"/><path fill="#53b01a" d="M446 829c-1.5 3.1-4 3.3-7.2 4.4A49 49 0 00427 839l-2-1c4.7-4 14.6-12.2 21-9"/><path fill="#5ba617" d="M408 656c3.3.6 3.3.6 7 2 1.6 2.7 1.6 2.7 3 6l6 7-1 2-7-6.8-2-2-3.6-3.6C409 659 409 659 408 656"/><path fill="#96d328" d="M301 870h1l.2 3.2.2 4.2.2 2c.1 4 .1 4 1.4 7.6l7-1c-3.3 3-5.6 4.5-10 5a82 82 0 010-21"/><path fill="#9cda29" d="m644 813 5 1v2l4 1v2c-11.5.6-11.5.6-17-3 2.6-1 3.6-1.1 6.3 0l1.7 1z"/><path fill="#d1ee3d" d="M620.5 789.7h2.3c2.2.3 2.2.3 5.2 2.3l1 2h-5.7l-3.3-.1a25 25 0 00-7 1.1c0-2 0-2 1.2-3.6 2.3-1.8 3.5-1.8 6.3-1.7"/><path fill="#e1f6ab" d="M834 773h5l1 2-1 2c-1.4 2.1-1.4 2.1 0 5a14 14 0 01-9 2c.4-2.8.8-3.8 2.9-5.7 2.1-1.3 2.1-1.3 5.1-1.3v-3z"/><path fill="#e6f748" d="M595 736h3a29 29 0 01-5.4 8 98 98 0 00-6.6 8l-3-4 2-1c3.7-2.5 5.8-5.5 8.4-9.1z"/><path fill="#e4f991" d="M820 953c2 .7 2 .7 4 2a12 12 0 011 5l-2 2h-4c-.6-3.4-.6-3.4-1-7z"/><path fill="#e7f758" d="M623 776c-2.1 2.1-3.1 2.4-6 3l4 2c-6.1.2-11.2 0-17-2v-1a70 70 0 0119-2"/><path fill="#a1dd2b" d="M746.2 631.9h2.7l2.1.1c-.6 2-.6 2-2 4-2.6.6-2.6.6-5.6.8l-3 .1-2.4.1v-3c3.3-2.2 4.3-2.2 8.2-2.1"/><path fill="#217f0b" d="M484 505h2q-1 7.6-3 15l-.6 2-1.4 5h-1a44 44 0 014-22"/><path fill="#beeb48" d="m297 899-2.8 1.3-3.6 1.6-3.7 1.7c-2.7 1.1-2.7 1.1-3.9 2.4q-.3 2-.3 4l-.1 2.5-.2 2.6v2.6l-.4 6.3h-1v-20c12.3-6.6 12.3-6.6 16-5"/><path fill="#e7f8c6" d="M757 1021c4.5 2.4 7.8 5.5 11.3 9.2l1.7 1.7 4 4.1c-3 0-3 0-6-1l-3-5c-3.6-4.5-3.6-4.5-8.9-6.4l-2.1.4zm12 8h2v2l2 1h-3z"/><path fill="#fafc8d" d="M598 780h6l-2 1.6c-2.4 2.8-2.7 4.7-3 8.4l5 1a17 17 0 01-5 4l-2 3z"/><path fill="#73bf1f" d="m462 756 2.5.9 3.3 1.1 3.2 1.1c3.3 1 5.8 1.5 9-.1v5c-1.5.7-1.5.7-4 1q-3.7-1.5-7.2-3.4l-2-1-4.8-2.6z"/><path fill="#fdfdd8" d="M745 424h2c1.3 3 2 4.8 2 8l-4-1v-2l-9-1v-2h9z"/><path fill="#f9fb92" d="m337 924 2 2c2 0 2 0 4.1-.4l3.9-.6a22 22 0 01-6 8c-2.5-2-3-3-3.7-6.2q0-1.4-.3-2.8"/><path fill="#ebf232" d="M331 864h1c1 10.8 1 10.8-1.3 13.7-1.7 1-1.7 1-4.7 2.3-.2-5.6-.2-5.6 2-9h3z"/><path fill="#8bc61d" d="M368 866c-5.5 3.8-5.5 3.8-8.7 5-2.5.8-2.5.8-3.4 3.5l-.9 2.5-3 2c-.3-2.7-.3-2.7 0-6 3.1-3.4 11.3-9.3 16-7"/><path fill="#8fd126" d="M470 811c2.2.3 2.2.3 4 1l-1 1h6v2l-4 3v1h-5l1-4-4-1c1.3-1.6 1.3-1.6 3-3"/><path fill="#a6dd2c" d="m501 747 2 1c-1.2 2-1.2 2-3 4h-4l-.2 1.9c-.8 2.1-.8 2.1-2.9 3.4l-1.9.7-2-2 2.9-3 1.6-1.7c1.5-1.3 1.5-1.3 3.5-1.3l1-2z"/><path fill="#38871b" d="m436 575-2.4 1.8c-3.4 2.9-3.5 4.5-4 8.8l-.2 4v2.2l-.4 5.2h-1l-1-22c5.6-1.1 5.6-1.1 9 0"/><path fill="#eef862" d="M767 448c4.1 5.2 5.3 8.2 5 15l-2-1v-4l-3-1v-2h-2z"/><path fill="#def596" d="M750 890h7v1h-6v8l8 1 1-2v3c-2.7 1-4.4 1.2-7.1.2q-3-1.5-5.9-3.2v-2h2z"/><path fill="#e3f8af" d="M777 782v7h-4v2h-2v-6l-2-1c3-1.3 4.8-2 8-2"/><path fill="#58b116" d="M625 888c3 2.7 5 5.8 7.2 9.2l2.2 3.3 1.6 2.5-2 1q-6.1-5.5-10-13z"/><path fill="#d2ef4b" d="M497 820c1 2 1 2 1 6-2 2.4-2 2.4-5 5l-1.8 1.7c-5 4.3-5 4.3-7.2 4.3v-2c1.6-1.6 1.6-1.6 3.8-3.4 4.1-3.4 7-6.7 9.2-11.6"/><path fill="#30980a" d="M479 637h1v17l-6-1 3-1v-10h2z"/><path fill="#daef7a" d="m734 427 6 1 1 6 3 1v2h2v2c-2.8-.4-3.8-.7-5.6-3l-1.4-2-3-1c-1.2-3-1.2-3-2-6"/><path fill="#d8f23d" d="M332 940a12 12 0 01-6 6.8l-2 1.2c-2 1-2 1-5 1v-3l2.2-.7c3-1.2 3-1.2 5.4-3.4 2.4-1.9 2.4-1.9 5.4-1.9"/><path fill="#9dd827" d="M315 890c-2 2-2 2-4.3 2.8-3.2 1-5.2 2-7.7 4.2-1.2 5-1.2 9.8-1 15h-1v-17c9-5.4 9-5.4 14-5"/><path fill="#73b21d" d="m394 900 3 1a51 51 0 01-13 10h-2c1.3-3.9 3-4.9 6.4-7.2l3-2.3z"/><path fill="#b4e336" d="m486 807 2 1c-.3 2.4-.3 2.4-1 5a16 16 0 01-8 3l3-3-4-2 3.9-2 2.2-1.2z"/><path fill="#b1dd38" d="M470 794a53 53 0 0118 2v4h-4v-4h-13z"/><path fill="#dffa97" d="M565 563h5l-1 9-4 1z"/><path fill="#fafc8b" d="M719 397h4v2l1.6.7q4.8 2.8 9.4 6.3l-1 2-6 1 1-4-2.2-1.7a77 77 0 01-6.8-6.3"/><path fill="#eff8cf" d="M386 989c4.5 1.5 7.8 4 11.3 7.1l1.7 1.4 4 3.5-2 2-1.8-1.6c-5.3-4.7-5.3-4.7-10.8-9.3L386 990z"/><path fill="#97d424" d="M603 857c3.4 2.2 4.8 3.3 5.8 7.3l.2 2.7h2v3l-4-1-1-4h-2v-2.3c.1-2.8.1-2.8-1-5.7"/><path fill="#68be1f" d="m478 856 4 2-9 10-3-1z"/><path fill="#a1db2b" d="m480 810-1 1 4 2-4 2v-2l-9 1 1-2h3v-2c3.8-1.1 3.8-1.1 6 0m-3 5 3 1-3 2-3-1z"/><path fill="#d4f27f" d="M795 739v2l-4.7 2.6-2.7 1.5c-2.6.9-2.6.9-5 0L781 744l6.5-4c2.7-1.1 4.6-1.2 7.5-1"/><path fill="#dcf6a1" d="m115 713 4.9.9 2.7.5c2.4.6 2.4.6 4.4 2.6v3c-8.4-1.2-8.4-1.2-11-4.6z"/><path fill="#e5f8bf" d="M221 600c4.9.4 6.8 2.4 10 6l4 6c-3 0-3 0-5.7-2.4l-3-3-1.5-1.6c-3.8-3.8-3.8-3.8-3.8-5"/><path fill="#b5eb20" d="m299.8 952.7 2.2.3c-.3 2-.3 2-1 4l-3 1v2l-4 1-1-3c3-4.9 3-4.9 6.8-5.3"/><path fill="#eaf75f" d="M593 815h5l1 2-5 1c1.4 5.3 4.9 7.8 9 11l-1 2c-8.6-5.7-8.6-5.7-10.1-10.8.1-3.2.1-3.2 1.1-5.2"/><path fill="#d1f298" d="m196 730 8 1v1h-5l2 5-3 1-3-2c-.2-2.6-.2-2.6 0-5z"/><path fill="#5aa72a" d="m497 394 2 1-3 3 5 1v1l-3.3.3c-3.6.7-4.6.9-6.7 3.7v-3l-4 1c3-3.3 6-6 10-8"/><path fill="#9ad427" d="M606 832h2c1.6 1.6 1.6 1.6 3.4 3.8q3.6 4.3 7.6 8.2c-3-.6-4.4-1.3-7-3v-2l-7-2z"/><path fill="#fafc8e" d="m681.3 682.7 2.7.3-1.7.6a22 22 0 00-8.3 9.4h-6l5-5 2.4-2.8c2.6-2.2 2.6-2.2 6-2.5"/><path fill="#dcf88f" d="M697 523h5c0 4 0 4-1.5 5.8L699 530l-4-2z"/><path fill="#86c925" d="m498 852 3 4-2.2 2.7-6.8 8.3-2-1 1.5-2.3 2-3 1.9-3c1.7-2.7 1.7-2.7 2.6-5.7"/><path fill="#2f8112" d="M413 721c5 1.8 9.4 4.4 14 7v3a46 46 0 01-9.8-5l-2.4-1.6-1.8-1.4z"/><path fill="#eaf8b5" d="M812 695h3l1 7-6-1c0-4 0-4 2-6"/><path fill="#bfe880" d="m265 571.3 2 .7 1 3-2 3-4-1-1-5c2-1 2-1 4-.7"/><path fill="#7bc821" d="M472 849c-2.5 3.1-3.7 4-7.7 4.8-1.7 0-1.7 0-3.3.2.8-2 .8-2 2-4 3.2-1 5.7-1 9-1m-12 5v3l-2-1z"/><path fill="#3b9214" d="m427 763 7 2v-2l9 1c-3.2 2.1-5.2 2.4-9 3l-2 1-3-1v-2h-2z"/><path fill="#f2fa75" d="m596 798 .4 2 .6 2 2 1-3 3 2 3h-3v2l-5 2 1-2.5 1.4-3.3 1.4-3.3z"/><path fill="#d7ee4a" d="M492 793v5l-4 2v-4l-6-1c3.4-2 6-2.2 10-2"/><path fill="#cbec7e" d="M736 931h2l-.7 2.4-.8 3.3-.8 3.2c-.8 3-.8 3-.7 5.8 0 3.4-1.8 4.9-4 7.3l3.5-19.1c.5-1.9.5-1.9 1.5-2.9"/><path fill="#9fd727" d="m328 864 3 1v3l-3.3 1.3a15 15 0 00-6.7 4.7l-2-1 2.8-3.4 1.6-1.9c1.6-1.7 1.6-1.7 4.6-3.7"/><path fill="#8bcf2a" d="m491 852 2 4-3 4h-2l-2 4-2-2z"/><path fill="#f3fa82" d="M496 795h1l3 12h-5l.1-2.4c.2-2.8.2-2.8-2.1-4.6l3-1z"/><path fill="#c9f078" d="M236 730h3v2h2l-1 4h-2v2h-2l-1-7z"/><path fill="#d4f29e" d="M292 422c3.1 2.7 4.8 6 6.8 9.5l1.9 3.5c1.3 3 1.3 3 .3 6a46 46 0 01-6.2-10.6l-1.6-3.5C292 424 292 424 292 422"/><path fill="#9ad72a" d="M621 819c4.8 1.4 8.7 3.4 13 6-2.7 1-3.8 1-6.6 0l-2.6-1.4-4.8-2.6z"/><path fill="#b0dd31" d="m490 759 4 2c-.7 4.8-.7 4.8-3 7-3.1-.4-3.1-.4-6-1l2.5-2.3c2.8-2.5 2.8-2.5 2.5-5.7"/><path fill="#f3fa71" d="M595 753h4q-1.4 3.2-3.6 6c-1.6 2-1.6 2-2.4 5l-3-7 3-1z"/><path fill="#e8f760" d="M582 738h2l-1 10-8-6c2-1 2-1 5-1z"/><path fill="#2f7b14" d="m357 658 2 1-2.2 2.1-2.7 2.8-2.8 2.7c-2.3 2.2-2.3 2.2-3.3 4.4l-2-1c3-5 6.4-8.4 11-12"/><path fill="#d5f688" d="M258 807v3c-2.2 1.8-2.2 1.8-5 3-2.3-.3-2.3-.3-4-1 1.6-5 4.2-5.3 9-5"/><path fill="#6ebd1b" d="M447.2 806h3.8v2c-3 2-4.1 2-7.7 1.6l-3.3-.6v-2c2.8-1 4.4-1.1 7.2-1"/><path fill="#b5ea4e" d="M777 779v2c-1.7 1.7-1.7 1.7-4 3-2.2-.3-2.2-.3-4-1l1-4c2.7-1.3 4.2-.7 7 0"/><path fill="#f4fbe1" d="M816 769h4v4l5 1v1l-9 2z"/><path fill="#5eb31c" d="m447.6 766.4 3 .3 2.4.3-3 1v2l-4.4-.4-2.5-.2-2.1-.4-1-2c2.7-1.4 4.6-.9 7.6-.6"/><path fill="#76c422" d="M472 744c5 1.5 8.2 4.6 12 8l-2 2-5-3.9-2.8-2.2-2.2-1.9z"/><path fill="#c4ea5e" d="m525 729 2 1v3h9c-2.8 2.8-5.2 2.5-9 3l-2 2c-2.1-.4-2.1-.4-4-1l3-1z"/><path fill="#bae76b" d="M256 653c3.3.6 5.5 1.7 8 4v3c-3.2-.3-4.6-.6-6.8-3-1.2-2-1.2-2-1.2-4"/><path fill="#d9f691" d="M790 879c6.4-.4 6.4-.4 9.3 1.4l1.7 1.6 3 2-10-1v-2h-4z"/><path fill="#d0e92c" d="m327 870 4 1h-3l-.3 2-.5 2.4-.5 2.5-.7 2.1-3 1c-.4-4-.3-5.6 2-8.9z"/><path fill="#c3e37f" d="m668.2 866 1.8 1v4h-5l-2-5c3-1 3-1 5.2 0"/><path fill="#78c438" d="M506 861c1.3 3.7.8 6.5 0 10.3l-.5 3.2-.5 2.5h-1c-1-6.2-1.6-10.5 2-16"/><path fill="#a9e130" d="M482 835h2l1 3c-1 2.1-1 2.1-3 4-3.2.8-3.2.8-6 1l2.9-4 1.6-2.2z"/><path fill="#def453" d="m498 819 3 1-1 3h3c-1.7 3.9-1.7 3.9-4 5v-2l-3-1z"/><path fill="#daf043" d="M623 780h7c-1.3 2.7-3.1 3.4-5.8 4.5-4 1-8.1.2-12.2-.5v-1l2.2-.1 2.7-.3 2.8-.2 2.3-.4z"/><path fill="#99d22b" d="M478 777h2c.2 3.6.1 6-2 9-2.1.8-2.1.8-4 1a21 21 0 014-10"/><path fill="#fbfc90" d="m658 693 4 1-3.3 2.5-1.9 1.4C655 699 655 699 652 699l1 6-4 1 2-8 5-1v-2h2z"/><path fill="#e5f8b8" d="m235 613 6 2v2l1.8.8q3.2 1.8 6.2 4.2l-1 2c-3.8-1.3-5.3-3.1-8-6l-2.8-2.8z"/><path fill="#c1e63b" d="m494 762 2 1-2 6h-3l-1 3-1.2-1.4a19 19 0 00-5.8-3.6c2.9-1.4 5-.6 8 0z"/><path fill="#e0f6bd" d="m170 718 8 3-1 2-6-1-3 7a7 7 0 01-.4-5.8z"/><path fill="#f5fbe2" d="m260 619 4 1 1 4-4 2-2-2c.4-2.6.4-2.6 1-5"/><path fill="#bfe971" d="M319 480c3.9 1.8 3.9 1.8 5 4v7a16 16 0 01-5-8z"/><path fill="#e3f7aa" d="M284 452c1.9.1 1.9.1 4 1 1.3 3 1.3 3 2 6l-3 1c-2.6-3-3-3.7-3-8"/><path fill="#9bdd19" d="M307 950c-.5 3.8-2.2 5.5-5 8l-2-1 2-4-4-1c6.8-2 6.8-2 9-2"/><path fill="#88cf29" d="m339 932 2 4a81 81 0 01-9 6l-1-3c5.8-4 5.8-4 8-4z"/><path fill="#9dd82b" d="M717 903c4 1.4 6.9 3.2 10 6v2a41 41 0 01-10-5z"/><path fill="#7bc01b" d="M384 856v2c-4.5 3-4.5 3-7 4-3-.7-3-.7-5-2 3.6-2.4 7.6-4 12-4"/><path fill="#ddee56" d="M477.1 800.6h2.3l2.3.1c2.3.3 2.3.3 6.3 2.3l-16 1c3-3 3-3 5.1-3.4"/><path fill="#d1ed3f" d="M633 774c-2.5 2.5-4.6 3.1-8 4-3-.3-3.8-.8-6-3 4.7-1.2 9.2-1 14-1"/><path fill="#f3fa53" d="m659 702 2 1-2 1zm0 2c-1.7 3.3-4.7 3.8-8 5l-3-1c3.7-3.5 5.9-4.5 11-4"/><path fill="#bfe432" d="m318 884-10 6 1 2-4 1c.6-2.9.9-3.9 3-6h3l1-3c3-1 3-1 6 0"/><path fill="#cceb4a" d="m501 830 2 1-3.3 3.5-1.9 2C496 838 496 838 493 838l1-5 2-1v2z"/><path fill="#67bf17" d="m655 817 10 2-1 4-8-1v-1h5v-2l-6-1z"/><path fill="#cae29f" d="M388 800v6h-5v-5c2-1 2-1 5-1"/><path fill="#78c71d" d="M483 734h2v3l1.8.2c3 1.1 4.3 3.1 6.2 5.8l-3 1-3.5-3.3-2-1.9C483 737 483 737 483 734"/><path fill="#65ba2b" d="m135 729 1 2-1 2.2a21 21 0 00-1.1 9.1v3.3l.1 2.4c-2.8-2.8-2.3-4.5-2.3-8.4v-3.4c.3-3.4 1-4.8 3.3-7.2"/><path fill="#e5f452" d="m644 707 2 1c-1.6 3.2-2.5 4.7-5.7 6.3l-2.3.7v-4c3-2.2 3-2.2 6-4"/><path fill="#c6ee7e" d="m251 700 3 .6 2 .4v2a25 25 0 01-11-2l-1 2-5-1c3.7-3.9 7.2-3 12-2"/><path fill="#eaf9a3" d="m659 625 4 1 1 2-3 4h-2c-1.1-4.7-1.1-4.7 0-7"/><path fill="#dff69b" d="M238 608c3.9 1.8 3.9 1.8 5 4l-6 2-4-4h4z"/><path fill="#b9e764" d="M198 609c3-.3 4.6-.2 7.3 1.3 1.7 1.7 1.7 1.7 1.7 4.7-4.2-.5-6.2-3-9-6"/><path fill="#43a314" d="M434 1047c2 1 2 1 4.1 2.4l2.2 1.5 1.7 1.1-1 2c-4-1.3-6.2-3-9-6z"/><path fill="#e6f8a2" d="m824 934 5 1v3l-7 2z"/><path fill="#e7fab5" d="m210 904-1 3-6 1v-4c2.7-1.3 4.2-.7 7 0"/><path fill="#87c624" d="m352 880 1 2c-2.7 3.7-4.6 5.6-9 7v-4l2.3-.8c2.6-1.1 3.9-2.1 5.7-4.2"/><path fill="#95cf3d" d="m631 838 4 1 1 6-7-3z"/><path fill="#b1e765" d="m841 822 4 1-1 5h-4v-5z"/><path fill="#97d728" d="m469 805 3 1c-2 2.6-3 3-6.4 3.7l-3.8.5-3.8.5-3 .3 1-2c2.5-.4 2.5-.4 5.6-.6l3-.3 2.4-.1v-2z"/><path fill="#d3f280" d="m827 782 1 2 4 2a67 67 0 01-16 4c3-2 3-2 5.5-2.9 2.8-1.2 3.9-2.5 5.5-5.1"/><path fill="#d9f379" d="m766 753 1 4c-2.8 1.6-2.8 1.6-6 3l-3-1c2.5-2.7 4.6-4.6 8-6"/><path fill="#dcf13c" d="m644 689 8 1c-4.7 4.9-4.7 4.9-7 6a24 24 0 01-1-7"/><path fill="#abdd44" d="M552 675c6.3-.2 11.9.6 18 2l-1 2-2.1-.4-9.2-1.7-3.3-.5-2.4-.4z"/><path fill="#f2fdc3" d="m263 927 6 1c-1.7 2-1.7 2-4 4h-4z"/><path fill="#f4fbad" d="M256 918h-2v3c-3.4.6-3.4.6-7 1l-2-2 3.8-1.6 2.2-.8c2-.6 2-.6 5 .4"/><path fill="#daee31" d="M324.8 884.3a33 33 0 017.2 3.7l-1 2-6-1v-3l-4-1c2-1 2-1 3.8-.7"/><path fill="#92d11f" d="M604 849c3 0 3 0 5.7 2.3 2.3 2.7 2.3 2.7 2.3 5.7l-4-2v-2l-4-2z"/><path fill="#95d72a" d="m474 843 1 3-2 3c-3.1.2-3.1.2-6 0 1.1-3 1.7-3.8 4.6-5.2z"/><path fill="#b4e235" d="M489 823h3v6l-1.9.8c-2.5 1.4-3 2.6-4.1 5.2l-2-1 3-4h2z"/><path fill="#67ba1c" d="M452 794h8v2l3 1h-10z"/><path fill="#c7ea38" d="M729 768v2l-3.9.4c-2.4.3-4 .5-6.1 1.6-.7 2.5-.7 2.5-1 5h-1v-7c4.2-1.6 7.5-2.2 12-2"/><path fill="#f8fce6" d="m820 756 5 1v4h-5z"/><path fill="#d0ef39" d="m631 717 2 1-1 2 2 1c-1.2 1.5-1.2 1.5-3 3h-4c.6-3.3 1.5-4.8 4-7"/><path fill="#e4f99a" d="m646 643 4 2-2 4-4-1c.9-3.9.9-3.9 2-5"/><path fill="#c3e87b" d="M369 585c2.6 2.5 4.8 4.6 6 8l-1 4-2.5-4.3-1.4-2.4C369 588 369 588 369 585"/><path fill="#f5fcb4" d="m803 418 5 1-1 4h-4l-1-3z"/><path fill="#b3e862" d="M738 978h5l1 4c-1.9.6-1.9.6-4 1l-2-2z"/><path fill="#d5f089" d="m225 871 1 5-3 1v-4h-5l-1 4v-5c2.9-.8 4.9-1 8-1"/><path fill="#a4de27" d="M591 858c4.4 8.7 4.4 8.7 3.6 13.4l-.6 1.6v-3l-3 1z"/><path fill="#65bd1c" d="m461 835 2 1v2c-5.2 3.2-5.2 3.2-7 4l-3-1z"/><path fill="#f6fb90" d="m584 820 1 4-4 2v8h-1c-.6-9.2-.6-9.2 2-12.6z"/><path fill="#3b8e2a" d="m347 651-7 6-2-4c5.6-3.1 5.6-3.1 9-2"/><path fill="#6dc319" d="M435 563h1v6h-6l1-4h4z"/><path fill="#edfbb5" d="M355 521h2c4 6.8 4 6.8 4 9h-3c-3-5.6-3-5.6-3-9"/><path fill="#edf9d2" d="m279 473 4 6c2 1.2 2 1.2 4 2l-1.9.4c-2.3.5-2.3.5-4.1 2.6a35 35 0 01-2-11"/><path fill="#e0f078" d="M538 1074c4 4.9 4 4.9 4 6h-10v-2h6z"/><path fill="#def6b1" d="M774 986c0 4.2-1.8 6.4-4 10l-3-1v-2l2-1.4c2.3-1.5 2.3-1.5 3-4.6z"/><path fill="#e5f8a4" d="M274 909v2l-9 4-2-2 6-3.1c2-.9 2-.9 5-.9"/><path fill="#fefddf" d="M342 872c-3.7 1.1-3.7 1.1-6 0l-.7 1.9c-1.5 2.5-2.7 3-5.3 4.1 3.3-7 4.4-7.3 12-6"/><path fill="#68bf18" d="M622 865c2 1.8 2 1.8 4 4v4c-3.2-1.4-4-2-6-5h2z"/><path fill="#d1f24d" d="M587 851c1.7 2.6 2 3.8 1.7 7l-.7 3-.6 2.9-.4 2.1h-1c-.2-10.6-.2-10.6 1-15"/><path fill="#e4f7c1" d="M245 784v1h-7v3l-6-1v-2c4.4-1.1 8.5-1 13-1"/><path fill="#ecf76d" d="M489 778h6v12h-1v-1.9l-.2-2.5-.2-2.4c-.4-2.4-.4-2.4-2.6-3.5l-2-.7z"/><path fill="#bde634" d="M640 772c-2 2.5-3 3-6.2 3.7l-2.8.3-2-3c3.7-1.2 7.2-1 11-1"/><path fill="#bde72e" d="M611 722a19 19 0 01-5 7c-.7-1.8-.7-1.8-1-4 2-2.7 2.6-3 6-3"/><path fill="#c0ec47" d="m748 633-1 2c-2 .6-2 .6-4.6 1.1l-2.5.5-1.9.4v-3c3.2-1.6 6.4-1 10-1"/><path fill="#c7ec7f" d="M352 551c3 1 3 1 4.2 2.8.8 2.2.8 2.2.8 6.2h-2c-3-5.6-3-5.6-3-9"/><path fill="#c5ec84" d="M333 506c2.2 2.6 3.4 4.6 4 8h-4l-2-6h2z"/><path fill="#e5f3c3" d="m520 929 1 3 2.9-.1c3.1.1 3.1.1 5.1 2.1h-10c0-3 0-3 1-5"/><path fill="#e2f788" d="M242 925v2l-8 1-1-2c3.4-2.1 5.2-2 9-1"/><path fill="#6bb920" d="M670 868c2 1.3 2 1.3 4 3v4l-4-1v-2l-3-1h3z"/><path fill="#eef441" d="M343 870h10l-4 4-1-2h-5z"/><path fill="#b3e028" d="m595 840 4 4-3 3h-2c-.6-1.8-.6-1.8-1-4z"/><path fill="#b9e33c" d="m500 840 3 1a20 20 0 01-7 8c.6-3.5 2.1-6 4-9"/><path fill="#e8f851" d="m607 762 3 1-2.5 2.4c-2.6 2.1-2.6 2.1-2.5 3.6h-5c2.2-3 4-5 7-7"/><path fill="#f3fcdc" d="M310 574c4 4.5 4 4.5 4 9-2.6-2.2-2.6-2.2-5-5 .2-2.3.2-2.3 1-4"/><path fill="#daf24a" d="M777 469c2 2 2 2 2.2 4.4v2.7l-.1 2.8-.1 2.1a18 18 0 01-3-10z"/><path fill="#fafc92" d="M751 425c3 2 3 2 3.9 5l.1 3-3 3z"/><path fill="#dff589" d="M716 1037h4l1 3-3 3-2-1z"/><path fill="#dbf382" d="m750 907 5 1v4h-3v-2h-2z"/><path fill="#88cb20" d="m611 869 5 5-2 1-1 2-4-7z"/><path fill="#b6df2a" d="M369 863c-2.5 2.8-4.2 4.5-8 5l-1-3c3.1-1.9 5.4-2.2 9-2"/><path fill="#94d021" d="M370 860h6c-2.5 2.8-4.2 4.5-8 5l-1-3h3z"/><path fill="#daf250" d="M591 831c4 4.6 4 4.6 4 8l-3-3-1 6h-1v-4.4l-.1-2.4c.1-2.2.1-2.2 1.1-4.2"/><path fill="#9cdb38" d="m206 767 3 1c-.3 2.4-.3 2.4-1 5l-3 2c-1.2-3.6-.5-4.6 1-8"/><path fill="#eaf85f" d="m605 757 1 3-3 3-3-1 1-4c2-1 2-1 4-1"/><path fill="#bbea32" d="M633 751v2l-9 4-2-2 4.4-2 2.4-1.1c2.2-.9 2.2-.9 4.2-.9"/><path fill="#f3fb65" d="M589 744h2c-1.4 3-3 5.4-5 8l-3-4 2.4-1.4c2.4-1.4 2.4-1.4 3.6-2.6"/><path fill="#eff9dd" d="m675 1091 4 5h-3l-1 3-.4-3-.6-3-2-1z"/><path fill="#76ca19" d="m290 951 2 4 3-3 3 1-2 3h-2l-1 2c-3-3.6-3-3.6-3-7"/><path fill="#3e8712" d="m370 914 2 1c-2.2 2.6-2.2 2.6-5 5-2.3-.2-2.3-.2-4-1 4.8-3.9 4.8-3.9 7-5"/><path fill="#8fd026" d="M332 895v4l-5 2v-5c2-1 2-1 5-1"/><path fill="#f3f636" d="M327 883h5v5l-5-2z"/><path fill="#f5f74f" d="M326 882h6v1l-12 2v-3c2.6-1.3 3.3-.7 6 0"/><path fill="#ebf44e" d="M331 864h1l.3 9.2-.3 2.8-3 2v-5h2z"/><path fill="#b7e535" d="m485 822 4 2c-1.2 1.5-1.2 1.5-3 3-2.7.2-2.7.2-5 0 1-3 1-3 4-5"/><path fill="#6bbf1d" d="M466 821a16 16 0 01-10 4c2.7-4.1 5.2-5.6 10-4"/><path fill="#bbe734" d="M613 816c5.8.9 5.8.9 8 2v2l-8-1z"/><path fill="#daf06f" d="M644 813v4l-9-2c3.4-2.3 5-2.2 9-2"/><path fill="#6bbd1f" d="m451 811 4 1-5 5-2-1 1-2h-6v-1l3.4-.4c3.4-.2 3.4-.2 4.6-1.6"/><path fill="#e8f660" d="M493 802h3l-1 5 4 1-5 1z"/><path fill="#c9e637" d="m473 803-1 2-5 1v2l-2-1 1-2-2-1c6.8-2.1 6.8-2.1 9-1"/><path fill="#f8fb7b" d="m599 790 5 1a17 17 0 01-5 4l-2 3v-5h2z"/><path fill="#edfacb" d="M774 782h3v5l-5-1z"/><path fill="#fafdf3" d="m251 781 5 1v3h-5z"/><path fill="#def5af" d="m250 779 7 1 1 4-2 1-1-3h-5z"/><path fill="#8acf17" d="M647 771h5v4h-7z"/><path fill="#55ae16" d="M463 738a30 30 0 0110 6l-2 2-4-3.4-2.2-2-1.8-1.6z"/><path fill="#eff854" d="m669.6 692.9 2.4.1c-2.6 3-5.7 4.9-9 7 2.6-7 2.6-7 6.6-7.1"/><path fill="#e1f79e" d="m352 616-1 3h-3l-2 1.6-2 1.4-3-1 3.3-2.5 1.8-1.4c1.9-1.1 1.9-1.1 5.9-1.1"/><path fill="#d4efa9" d="m202 582 6 1v2h2v3c-4-1.3-5.8-2.5-8-6"/><path fill="#f2fcd5" d="M301 577h7l-1.1 1.7c-1.2 2.4-1.2 2.4 0 5l1.1 2.3c-3-2.8-5-5.5-7-9"/><path fill="#f9fc8f" d="M743 416a20 20 0 018 7l-1 2c-5.8-4.4-5.8-4.4-6.9-7.3z"/><path fill="#d3f692" d="m186 949 2 1v2c-3 1.3-4.8 2-8 2v-2z"/><path fill="#68a81d" d="m387 905 3 1c-2.5 2.8-4.2 4.5-8 5 1.1-3.4 2-4.2 5-6"/><path fill="#8ed325" d="m474 828 2 1-1 1 3 2-8 1c1.8-3.9 1.8-3.9 4-5"/><path fill="#e6f66a" d="m500 827 2 3-4 4h-2c.6-3.3 1.5-4.8 4-7"/><path fill="#c2e83b" d="m486 807 2 1-1 4-8-1q3.3-2.5 7-4"/><path fill="#bde630" d="m620 790 8 1 1 3h-7l1-2z"/><path fill="#a6d924" d="M639 774v2h7v1h-13c1.4-2.8 3-3 6-3"/><path fill="#e2f366" d="m565 736 9 1 1 4a25 25 0 01-10-5"/><path fill="#ace250" d="m222 702 5 2c-2.5 2.5-4.7 3-8 4 1.9-4.9 1.9-4.9 3-6"/><path fill="#fcfc72" d="m342 868 1 4h5v2l-5 2z"/><path fill="#5cb21b" d="m475 862 3 1-5 5-3-1z"/><path fill="#bce737" d="M599 852c3.3 1.9 4 3 5.3 6.7l.7 3.3c-3.5-3.2-5.6-5.2-6-10"/><path fill="#b3de32" d="M606 832h2l3 5h-6z"/><path fill="#e0f25b" d="M595 823a30 30 0 018 6l-1 2-3.5-2.9-2-1.6-1.5-1.5z"/><path fill="#9fdb42" d="M434 815c-3.4 2-6 2.2-10 2v-2c3.3-1.6 6.4-.5 10 0"/><path fill="#b5e135" d="m480 777 5 1-1 4-4-1z"/><path fill="#e7f861" d="M605 749c-.2 1.9-.2 1.9-1 4-2.6 1.3-2.6 1.3-5 2 2.2-6 2.2-6 6-6"/><path fill="#bde867" d="M344 606v2l-5 4v-4l-4-1q4.4-.9 9-1"/><path fill="#dff99a" d="m397 569 4 1-1 4-4-2z"/><path fill="#abe261" d="m263 476 4 2c-.3 1.9-.3 1.9-1 4l-3 2z"/><path fill="#bbe977" d="M401 475h4v5l-4-1z"/><path fill="#7abf3a" d="M490 406h1l.4 3.4c.4 3.4.4 3.4 1.6 5.6l-5-1v-3h2z"/><path fill="#b2da22" d="m352 871 2 1c-.8 3.4-.8 3.4-2 7l-3 1c.5-3.7.9-5.8 3-9"/><path fill="#dbf041" d="m466 805-1 3h-6v-2c2.5-1.2 4.3-1 7-1"/><path fill="#bee437" d="m484 795 4 1v4h-4z"/><path fill="#dcf48a" d="m202 766 4 1v3h-5z"/><path fill="#f2fcd3" d="m761 760-1 3-3 1-1 2h-3q1.8-5.8 8-6"/><path fill="#e0f5b7" d="M179 723c6.8.8 6.8.8 9 3-3 1-3 1-6.2-.4L179 724z"/><path fill="#f8fde8" d="m247 698 7 1 1 3q-4.3-.9-8-3z"/><path fill="#d6f091" d="m235 688 6 2-2 1v2l-4-1z"/><path fill="#fdfda8" d="m669 686 1 2-7 5-1-3z"/><path fill="#cef176" d="m233 603 4 2v2l2 1-2 3c-2.5-2.5-3-4.7-4-8"/><path fill="#b7e781" d="m221 545 6 5-1 3c-2.5-2.3-2.5-2.3-5-5z"/><path fill="#eafacd" d="M779 1022c2.2 2 3 3 4 6l-4 1z"/><path fill="#80c823" d="m302 885 1.7 1c2.8 1.2 4.4.8 7.3 0-3 2.5-5.2 3.5-9 4z"/><path fill="#e2ef3d" d="m346 874 2 1-1.4 1c-2.3 2.8-2.3 5.5-2.6 9h-1l-.3-6.8.3-2.2z"/><path fill="#eafac0" d="m240 843 1.6.4q4.5 1.1 9.4 1.6v1l-3.4.4c-3.4.4-3.4.4-5.6 1.6z"/><path fill="#56b01d" d="M415 815h5l-4 1v3l3 1h-6z"/><path fill="#f4f985" d="m596 798 1 4 2 1-3 2-1 3-2-1z"/><path fill="#87cc2a" d="M676 791h3l1 3-4 2-1-3z"/><path fill="#e9f954" d="M600 747c0 3.1-.5 4.4-2 7l-3-1 1-3h2v-2z"/><path fill="#47a61a" d="m737 637 3 1c-1.8 2.5-1.8 2.5-4 5h-3c0-2 0-2 2-4.1z"/><path fill="#eaf8ac" d="m314 625 5 3-1 4v-2l-4-1z"/><path fill="#edfbcb" d="m239 528 4 1-1 3h-2l-1 2c-1-3-1-3 0-6"/></svg>